{
.appVersion = "3343";
.formatVersion = 3;
date = "2025-02-09 20:11:06 +0000";
familyName = Castello;
fontMaster = (
{
iconName = Bold;
id = m01;
metricValues = (
{
over = 16;
pos = 800;
},
{
over = 16;
pos = 700;
},
{
over = 16;
pos = 525;
},
{
over = -16;
},
{
over = -16;
pos = -175;
},
{
}
);
name = Bold;
userData = {
GSOffsetHorizontal = -25;
GSOffsetKeepCompatible = 1;
GSOffsetVertical = -15;
};
}
);
glyphs = (
{
glyphname = A;
kernLeft = A;
kernRight = A;
lastChange = "2025-04-18 19:39:30 +0000";
layers = (
{
anchors = (
{
name = bottom;
pos = (230,0);
},
{
name = ogonek;
pos = (414,10);
},
{
name = top;
pos = (230,700);
}
);
background = {
shapes = (
{
closed = 1;
nodes = (
(5,0,l),
(145,0,l),
(259,700,l),
(129,700,l)
);
},
{
closed = 1;
nodes = (
(160,140,l),
(300,140,l),
(300,250,l),
(160,250,l)
);
},
{
closed = 1;
nodes = (
(201,700,l),
(315,0,l),
(455,0,l),
(331,700,l)
);
},
{
closed = 1;
nodes = (
(5,0,l),
(145,0,l),
(259,700,l),
(129,700,l)
);
},
{
closed = 1;
nodes = (
(160,140,l),
(300,140,l),
(300,250,l),
(160,250,l)
);
},
{
closed = 1;
nodes = (
(201,700,l),
(315,0,l),
(455,0,l),
(331,700,l)
);
}
);
};
backgroundImage = {
imagePath = "png/ABCDE.png";
locked = 1;
pos = (-110,-1549);
scale = (4.4,4.4);
};
layerId = m01;
shapes = (
{
closed = 1;
nodes = (
(5,0,l),
(145,0,l),
(168,140,l),
(292,140,l),
(315,0,l),
(455,0,l),
(331,700,l),
(129,700,l)
);
},
{
closed = 1;
nodes = (
(230,522,l),
(274,250,l),
(186,250,l)
);
}
);
width = 460;
}
);
metricLeft = "=O*.25";
metricRight = "=O*.25";
unicode = 65;
},
{
glyphname = B;
kernLeft = H;
kernRight = B;
lastChange = "2025-04-17 20:22:12 +0000";
layers = (
{
background = {
hints = (
{
name = _corner.BASE;
scale = (1.08,1.08);
type = Corner;
},
{
name = _corner.BASE;
scale = (1.08,1.08);
type = Corner;
},
{
name = _corner.BASE;
scale = (0.3,0.3);
type = Corner;
},
{
name = _corner.BASE;
options = 2;
scale = (-0.3,0.3);
type = Corner;
},
{
name = _corner.BASE;
scale = (0.9,0.9);
type = Corner;
},
{
name = _corner.BASE;
scale = (1.08,1.08);
type = Corner;
},
{
name = _corner.BASE;
scale = (0.3,0.3);
type = Corner;
},
{
name = _corner.BASE;
options = 2;
scale = (-0.3,0.3);
type = Corner;
},
{
name = _corner.BASE;
scale = (1.08,1.08);
type = Corner;
},
{
name = _corner.BASE;
scale = (0.9,0.9);
type = Corner;
},
{
name = _corner.BASE;
scale = (0.3,0.3);
type = Corner;
},
{
name = _corner.BASE;
options = 2;
scale = (-0.3,0.3);
type = Corner;
},
{
name = _corner.ROUND;
origin = (0,1);
scale = (1.08,1.08);
type = Corner;
},
{
name = _segment.DOUBLECUT;
origin = (0,3);
type = Segment;
},
{
name = _corner.ROUND;
origin = (0,4);
scale = (0.8,0.8);
type = Corner;
},
{
name = _corner.ROUND;
origin = (1,0);
scale = (0.3,0.3);
type = Corner;
},
{
name = _corner.ROUND;
options = 2;
origin = (1,3);
scale = (-0.3,0.3);
type = Corner;
},
{
name = _corner.ROUND;
origin = (2,0);
scale = (0.3,0.3);
type = Corner;
},
{
name = _corner.ROUND;
options = 2;
origin = (2,3);
scale = (-0.3,0.3);
type = Corner;
}
);
shapes = (
{
closed = 1;
nodes = (
(25,0,l),
(425,0,l),
(425,248,l),
(425,452,l),
(425,700,l),
(25,700,l)
);
},
{
closed = 1;
nodes = (
(275,405,l),
(175,405,l),
(175,590,l),
(275,590,l)
);
},
{
closed = 1;
nodes = (
(275,110,l),
(175,110,l),
(175,295,l),
(275,295,l)
);
}
);
};
hints = (
{
name = _corner.ROUND;
origin = (0,1);
type = Corner;
},
{
name = _corner.ROUND;
origin = (0,4);
scale = (1.08,1.08);
type = Corner;
},
{
name = _corner.ROUND;
origin = (1,0);
scale = (0.3,0.3);
type = Corner;
},
{
name = _corner.ROUND;
options = 2;
origin = (1,3);
scale = (-0.3,0.3);
type = Corner;
},
{
name = _corner.ROUND;
origin = (0,1);
scale = (1.08,1.08);
type = Corner;
},
{
name = _corner.ROUND;
origin = (0,4);
scale = (0.8,0.8);
type = Corner;
},
{
name = _corner.ROUND;
origin = (2,0);
scale = (0.3,0.3);
type = Corner;
},
{
name = _corner.ROUND;
options = 2;
origin = (2,3);
scale = (-0.3,0.3);
type = Corner;
},
{
name = _segment.DOUBLECUT;
origin = (0,3);
type = Segment;
}
);
layerId = m01;
shapes = (
{
closed = 1;
nodes = (
(25,0,l),
(425,0,l),
(425,248,l),
(425,452,l),
(425,700,l),
(25,700,l)
);
},
{
closed = 1;
nodes = (
(275,405,l),
(175,405,l),
(175,590,l),
(275,590,l)
);
},
{
closed = 1;
nodes = (
(275,110,l),
(175,110,l),
(175,295,l),
(275,295,l)
);
}
);
width = 447;
}
);
metricLeft = H;
metricRight = O;
unicode = 66;
},
{
glyphname = C;
kernLeft = O;
kernRight = C;
lastChange = "2025-04-17 20:22:12 +0000";
layers = (
{
anchors = (
{
name = bottom;
pos = (220,0);
},
{
name = top;
pos = (220,700);
}
);
background = {
hints = (
{
name = _corner.ROUND;
type = Corner;
},
{
name = _corner.ROUND;
scale = (1.08,1.08);
type = Corner;
},
{
name = _corner.ROUND;
scale = (1.08,1.08);
type = Corner;
},
{
name = _corner.ROUND;
type = Corner;
},
{
name = _corner.ROUND;
scale = (0.3,0.3);
type = Corner;
},
{
name = _corner.ROUND;
options = 2;
scale = (-0.3,0.3);
type = Corner;
},
{
name = _corner.ROUND;
scale = (0.3,0.3);
type = Corner;
},
{
name = _corner.ROUND;
options = 2;
scale = (-0.3,0.3);
type = Corner;
}
);
shapes = (
{
closed = 0;
nodes = (
(422,255,l),
(272,255,l)
);
}
);
};
backgroundImage = {
imagePath = "png/ABCDE.png";
locked = 1;
pos = (-1197,-1550);
scale = (4.4,4.4);
};
hints = (
{
name = _corner.ROUND;
origin = (0,0);
type = Corner;
},
{
name = _corner.ROUND;
origin = (0,1);
scale = (1.08,1.08);
type = Corner;
},
{
name = _corner.ROUND;
origin = (0,10);
scale = (1.08,1.08);
type = Corner;
},
{
name = _corner.ROUND;
origin = (0,11);
type = Corner;
},
{
name = _corner.ROUND;
origin = (0,4);
scale = (0.3,0.3);
type = Corner;
},
{
name = _corner.ROUND;
options = 2;
origin = (0,5);
scale = (-0.3,0.3);
type = Corner;
},
{
name = _corner.ROUND;
origin = (0,6);
scale = (0.3,0.3);
type = Corner;
},
{
name = _corner.ROUND;
options = 2;
origin = (0,7);
scale = (-0.3,0.3);
type = Corner;
}
);
layerId = m01;
shapes = (
{
closed = 1;
nodes = (
(22,0,l),
(422,0,l),
(422,255,l),
(272,255,l),
(272,110,l),
(172,110,l),
(172,590,l),
(272,590,l),
(272,445,l),
(422,445,l),
(422,700,l),
(22,700,l)
);
}
);
width = 439;
}
);
metricLeft = O;
metricRight = "=O*.75";
unicode = 67;
},
{
glyphname = D;
kernLeft = H;
kernRight = O;
lastChange = "2025-04-17 20:22:12 +0000";
layers = (
{
anchors = (
{
name = bottom;
pos = (223,0);
},
{
name = center;
pos = (111,350);
},
{
name = top;
pos = (223,700);
}
);
backgroundImage = {
imagePath = "png/ABCDE.png";
locked = 1;
pos = (-1717,-1549);
scale = (4.4,4.4);
};
hints = (
{
name = _corner.ROUND;
origin = (0,1);
scale = (1.08,1.08);
type = Corner;
},
{
name = _corner.ROUND;
origin = (0,2);
scale = (1.08,1.08);
type = Corner;
},
{
name = _corner.ROUND;
origin = (1,0);
scale = (0.3,0.3);
type = Corner;
},
{
name = _corner.ROUND;
options = 2;
origin = (1,3);
scale = (-0.3,0.3);
type = Corner;
}
);
layerId = m01;
shapes = (
{
closed = 1;
nodes = (
(25,0,l),
(425,0,l),
(425,700,l),
(25,700,l)
);
},
{
closed = 1;
nodes = (
(275,110,l),
(175,110,l),
(175,590,l),
(275,590,l)
);
}
);
width = 447;
}
);
metricLeft = H;
metricRight = O;
unicode = 68;
},
{
glyphname = E;
kernLeft = H;
kernRight = E;
lastChange = "2025-04-17 20:22:12 +0000";
layers = (
{
anchors = (
{
name = bottom;
pos = (168,0);
},
{
name = ogonek;
pos = (302,10);
},
{
name = top;
pos = (168,700);
},
{
name = topleft;
pos = (20,700);
}
);
background = {
shapes = (
{
closed = 1;
nodes = (
(25,0,l),
(175,0,l),
(175,700,l),
(25,700,l)
);
},
{
closed = 1;
nodes = (
(175,295,l),
(315,295,l),
(315,405,l),
(175,405,l)
);
},
{
closed = 1;
nodes = (
(175,590,l),
(315,590,l),
(315,700,l),
(175,700,l)
);
},
{
closed = 1;
nodes = (
(175,0,l),
(315,0,l),
(315,110,l),
(175,110,l)
);
}
);
};
backgroundImage = {
imagePath = "png/ABCDE.png";
locked = 1;
pos = (-2249,-1549);
scale = (4.4,4.4);
};
layerId = m01;
shapes = (
{
closed = 1;
nodes = (
(25,0,l),
(175,0,l),
(175,700,l),
(25,700,l)
);
},
{
closed = 1;
nodes = (
(175,295,l),
(315,295,l),
(315,405,l),
(175,405,l)
);
},
{
closed = 1;
nodes = (
(175,590,l),
(315,590,l),
(315,700,l),
(175,700,l)
);
},
{
closed = 1;
nodes = (
(175,0,l),
(315,0,l),
(315,110,l),
(175,110,l)
);
}
);
width = 337;
}
);
metricLeft = H;
metricRight = O;
unicode = 69;
},
{
glyphname = F;
kernLeft = H;
kernRight = F;
lastChange = "2025-04-17 20:22:12 +0000";
layers = (
{
backgroundImage = {
imagePath = "png/FGHIJ.png";
pos = (-166,-1364);
scale = (4.1,4.1);
};
layerId = m01;
shapes = (
{
closed = 1;
nodes = (
(25,0,l),
(175,0,l),
(175,700,l),
(25,700,l)
);
},
{
closed = 1;
nodes = (
(175,295,l),
(315,295,l),
(315,405,l),
(175,405,l)
);
},
{
closed = 1;
nodes = (
(175,590,l),
(315,590,l),
(315,700,l),
(175,700,l)
);
}
);
width = 337;
}
);
metricLeft = H;
metricRight = O;
unicode = 70;
},
{
glyphname = G;
kernLeft = O;
kernRight = G;
lastChange = "2025-04-17 20:22:12 +0000";
layers = (
{
backgroundImage = {
imagePath = "png/FGHIJ.png";
locked = 1;
pos = (-562,-1364);
scale = (4.1,4.1);
};
hints = (
{
name = _corner.ROUND;
origin = (0,0);
type = Corner;
},
{
name = _corner.ROUND;
origin = (0,1);
scale = (1.08,1.08);
type = Corner;
},
{
name = _corner.ROUND;
origin = (0,6);
scale = (0.3,0.3);
type = Corner;
},
{
name = _corner.ROUND;
options = 2;
origin = (0,7);
scale = (-0.3,0.3);
type = Corner;
},
{
name = _corner.ROUND;
origin = (0,8);
scale = (0.3,0.3);
type = Corner;
},
{
name = _corner.ROUND;
options = 2;
origin = (0,9);
scale = (-0.3,0.3);
type = Corner;
},
{
name = _corner.ROUND;
origin = (0,12);
scale = (1.08,1.08);
type = Corner;
},
{
name = _corner.ROUND;
origin = (0,13);
type = Corner;
}
);
layerId = m01;
shapes = (
{
closed = 1;
nodes = (
(22,0,l),
(422,0,l),
(422,365,l),
(222,365,l),
(222,255,l),
(272,255,l),
(272,110,l),
(172,110,l),
(172,590,l),
(272,590,l),
(272,445,l),
(422,445,l),
(422,700,l),
(22,700,l)
);
}
);
width = 444;
}
);
metricLeft = O;
metricRight = O;
unicode = 71;
},
{
glyphname = H;
kernLeft = H;
kernRight = H;
lastChange = "2025-04-17 22:10:47 +0000";
layers = (
{
background = {
shapes = (
{
closed = 1;
nodes = (
(25,0,l),
(175,0,l),
(175,700,l),
(25,700,l)
);
},
{
closed = 1;
nodes = (
(165,295,l),
(285,295,l),
(285,405,l),
(165,405,l)
);
},
{
closed = 1;
nodes = (
(275,0,l),
(425,0,l),
(425,700,l),
(275,700,l)
);
}
);
};
backgroundImage = {
imagePath = "png/FGHIJ.png";
locked = 1;
pos = (-1012,-1364);
scale = (4.1,4.1);
};
layerId = m01;
shapes = (
{
closed = 1;
nodes = (
(25,0,l),
(175,0,l),
(175,295,l),
(275,295,l),
(275,0,l),
(425,0,l),
(425,700,l),
(275,700,l),
(275,405,l),
(175,405,l),
(175,700,l),
(25,700,l)
);
}
);
width = 450;
}
);
unicode = 72;
},
{
glyphname = I;
kernLeft = H;
kernRight = H;
lastChange = "2025-04-17 20:04:20 +0000";
layers = (
{
anchors = (
{
name = bottom;
pos = (100,0);
},
{
name = ogonek;
pos = (180,10);
},
{
name = top;
pos = (100,700);
},
{
name = topleft;
pos = (20,700);
}
);
backgroundImage = {
imagePath = "png/FGHIJ.png";
locked = 1;
pos = (-1464,-1364);
scale = (4.1,4.1);
};
layerId = m01;
shapes = (
{
closed = 1;
nodes = (
(25,0,l),
(175,0,l),
(175,700,l),
(25,700,l)
);
}
);
width = 200;
}
);
metricLeft = H;
metricRight = H;
unicode = 73;
},
{
glyphname = J;
kernLeft = J;
kernRight = J;
lastChange = "2025-04-17 20:22:12 +0000";
layers = (
{
anchors = (
{
name = bottom;
pos = (220,0);
},
{
name = top;
pos = (220,700);
}
);
background = {
hints = (
{
name = _corner.ROUND;
type = Corner;
},
{
name = _corner.ROUND;
scale = (1.08,1.08);
type = Corner;
},
{
name = _corner.ROUND;
scale = (0.3,0.3);
type = Corner;
},
{
name = _corner.ROUND;
options = 2;
scale = (-0.3,0.3);
type = Corner;
},
{
name = _corner.ROUND;
origin = (0,0);
scale = (0.3,0.3);
type = Corner;
},
{
name = _corner.ROUND;
options = 2;
origin = (0,1);
scale = (-0.3,0.3);
type = Corner;
},
{
name = _corner.ROUND;
origin = (0,4);
type = Corner;
},
{
name = _corner.ROUND;
origin = (0,5);
scale = (1.08,1.08);
type = Corner;
}
);
shapes = (
{
closed = 1;
nodes = (
(267,110,l),
(167,110,l),
(167,255,l),
(17,255,l),
(17,0,l),
(417,0,l),
(417,700,l),
(267,700,l)
);
}
);
};
backgroundImage = {
imagePath = "png/FGHIJ.png";
locked = 1;
pos = (-1886,-1364);
scale = (4.1,4.1);
};
hints = (
{
name = _corner.ROUND;
origin = (0,4);
type = Corner;
},
{
name = _corner.ROUND;
origin = (0,5);
scale = (1.08,1.08);
type = Corner;
},
{
name = _corner.ROUND;
origin = (0,0);
scale = (0.3,0.3);
type = Corner;
},
{
name = _corner.ROUND;
options = 2;
origin = (0,1);
scale = (-0.3,0.3);
type = Corner;
}
);
layerId = m01;
shapes = (
{
closed = 1;
nodes = (
(267,110,l),
(167,110,l),
(167,255,l),
(17,255,l),
(17,0,l),
(417,0,l),
(417,700,l),
(267,700,l)
);
}
);
width = 439;
}
);
metricLeft = "=O*.75";
metricRight = O;
unicode = 74;
},
{
glyphname = K;
kernLeft = H;
kernRight = K;
lastChange = "2025-04-17 20:22:12 +0000";
layers = (
{
background = {
shapes = (
{
closed = 1;
nodes = (
(445,700,l),
(305,700,l),
(145,350,l),
(285,350,l)
);
},
{
closed = 1;
nodes = (
(25,0,l),
(175,0,l),
(175,700,l),
(25,700,l)
);
},
{
closed = 1;
nodes = (
(145,350,l),
(305,0,l),
(445,0,l),
(285,350,l)
);
}
);
};
backgroundImage = {
imagePath = "png/KLMN.png";
locked = 1;
pos = (-236,-1449);
scale = (4.4,4.4);
};
layerId = m01;
shapes = (
{
closed = 1;
nodes = (
(455,700,l),
(305,700,l),
(145,350,l),
(295,350,l)
);
},
{
closed = 1;
nodes = (
(25,0,l),
(175,0,l),
(175,700,l),
(25,700,l)
);
},
{
closed = 1;
nodes = (
(145,350,l),
(305,0,l),
(455,0,l),
(295,350,l)
);
}
);
width = 466;
}
);
metricLeft = H;
metricRight = "=O*.5";
unicode = 75;
},
{
glyphname = L;
kernLeft = H;
kernRight = L;
lastChange = "2025-04-17 20:22:12 +0000";
layers = (
{
background = {
shapes = (
{
closed = 1;
nodes = (
(25,0,l),
(175,0,l),
(175,700,l),
(25,700,l)
);
},
{
closed = 1;
nodes = (
(175,0,l),
(315,0,l),
(315,110,l),
(175,110,l)
);
}
);
};
backgroundImage = {
imagePath = "png/KLMN.png";
locked = 1;
pos = (-780,-1449);
scale = (4.4,4.4);
};
layerId = m01;
shapes = (
{
closed = 1;
nodes = (
(25,0,l),
(175,0,l),
(175,700,l),
(25,700,l)
);
},
{
closed = 1;
nodes = (
(175,0,l),
(315,0,l),
(315,110,l),
(175,110,l)
);
}
);
width = 332;
}
);
metricLeft = H;
metricRight = "=O*.75";
unicode = 76;
},
{
glyphname = M;
kernLeft = M;
kernRight = M;
lastChange = "2025-04-17 20:04:20 +0000";
layers = (
{
background = {
shapes = (
{
closed = 1;
nodes = (
(34,0,l),
(184,0,l),
(184,700,l),
(34,700,l)
);
},
{
closed = 1;
nodes = (
(369,0,l),
(254,700,l),
(144,700,l),
(259,0,l)
);
},
{
closed = 1;
nodes = (
(444,700,l),
(444,0,l),
(594,0,l),
(594,700,l)
);
},
{
closed = 1;
nodes = (
(484,700,l),
(374,700,l),
(259,0,l),
(369,0,l)
);
},
{
closed = 1;
nodes = (
(24,0,l),
(174,0,l),
(174,700,l),
(24,700,l)
);
},
{
closed = 1;
nodes = (
(374,0,l),
(244,700,l),
(129,700,l),
(254,0,l)
);
},
{
closed = 1;
nodes = (
(454,700,l),
(454,0,l),
(604,0,l),
(604,700,l)
);
},
{
closed = 1;
nodes = (
(499,700,l),
(384,700,l),
(254,0,l),
(374,0,l)
);
},
{
closed = 1;
nodes = (
(24,0,l),
(174,0,l),
(174,700,l),
(24,700,l)
);
},
{
closed = 1;
nodes = (
(374,0,l),
(244,700,l),
(129,700,l),
(254,0,l)
);
},
{
closed = 1;
nodes = (
(454,700,l),
(454,0,l),
(604,0,l),
(604,700,l)
);
},
{
closed = 1;
nodes = (
(499,700,l),
(384,700,l),
(254,0,l),
(374,0,l)
);
},
{
closed = 1;
nodes = (
(24,0,l),
(174,0,l),
(174,700,l),
(24,700,l)
);
},
{
closed = 1;
nodes = (
(374,0,l),
(244,700,l),
(129,700,l),
(254,0,l)
);
},
{
closed = 1;
nodes = (
(454,700,l),
(454,0,l),
(604,0,l),
(604,700,l)
);
},
{
closed = 1;
nodes = (
(499,700,l),
(384,700,l),
(254,0,l),
(374,0,l)
);
},
{
closed = 1;
nodes = (
(24,0,l),
(174,0,l),
(174,700,l),
(24,700,l)
);
},
{
closed = 1;
nodes = (
(374,0,l),
(244,700,l),
(129,700,l),
(254,0,l)
);
},
{
closed = 1;
nodes = (
(454,700,l),
(454,0,l),
(604,0,l),
(604,700,l)
);
},
{
closed = 1;
nodes = (
(499,700,l),
(384,700,l),
(254,0,l),
(374,0,l)
);
},
{
closed = 1;
nodes = (
(24,0,l),
(174,0,l),
(174,700,l),
(24,700,l)
);
},
{
closed = 1;
nodes = (
(374,0,l),
(244,700,l),
(129,700,l),
(254,0,l)
);
},
{
closed = 1;
nodes = (
(454,700,l),
(454,0,l),
(604,0,l),
(604,700,l)
);
},
{
closed = 1;
nodes = (
(499,700,l),
(384,700,l),
(254,0,l),
(374,0,l)
);
},
{
closed = 1;
nodes = (
(24,0,l),
(174,0,l),
(174,700,l),
(24,700,l)
);
},
{
closed = 1;
nodes = (
(374,0,l),
(244,700,l),
(129,700,l),
(254,0,l)
);
},
{
closed = 1;
nodes = (
(454,700,l),
(454,0,l),
(604,0,l),
(604,700,l)
);
},
{
closed = 1;
nodes = (
(499,700,l),
(384,700,l),
(254,0,l),
(374,0,l)
);
},
{
closed = 1;
nodes = (
(24,0,l),
(174,0,l),
(174,700,l),
(24,700,l)
);
},
{
closed = 1;
nodes = (
(374,0,l),
(244,700,l),
(129,700,l),
(254,0,l)
);
},
{
closed = 1;
nodes = (
(454,700,l),
(454,0,l),
(604,0,l),
(604,700,l)
);
},
{
closed = 1;
nodes = (
(499,700,l),
(384,700,l),
(254,0,l),
(374,0,l)
);
}
);
};
layerId = m01;
shapes = (
{
closed = 1;
nodes = (
(25,0,l),
(175,0,l),
(175,700,l),
(25,700,l)
);
},
{
closed = 1;
nodes = (
(375,0,l),
(245,700,l),
(130,700,l),
(255,0,l)
);
},
{
closed = 1;
nodes = (
(455,700,l),
(455,0,l),
(605,0,l),
(605,700,l)
);
},
{
closed = 1;
nodes = (
(500,700,l),
(385,700,l),
(255,0,l),
(375,0,l)
);
}
);
width = 630;
}
);
metricLeft = H;
metricRight = H;
metricWidth = 638N;
unicode = 77;
},
{
glyphname = N;
kernLeft = H;
kernRight = H;
lastChange = "2025-04-17 20:04:20 +0000";
layers = (
{
anchors = (
{
name = bottom;
pos = (253,0);
},
{
name = top;
pos = (253,700);
}
);
backgroundImage = {
imagePath = "png/KLMN.png";
pos = (-1931,-1449);
scale = (4.4,4.4);
};
layerId = m01;
shapes = (
{
closed = 1;
nodes = (
(25,0,l),
(175,0,l),
(175,700,l),
(25,700,l)
);
},
{
closed = 1;
nodes = (
(460,0,l),
(175,700,l),
(35,700,l),
(330,0,l)
);
},
{
closed = 1;
nodes = (
(330,0,l),
(480,0,l),
(480,700,l),
(330,700,l)
);
}
);
width = 505;
}
);
metricLeft = "=H";
metricRight = "=H";
unicode = 78;
},
{
glyphname = O;
kernLeft = O;
kernRight = O;
lastChange = "2025-04-17 22:11:55 +0000";
layers = (
{
anchors = (
{
name = bottom;
pos = (222,0);
},
{
name = center;
pos = (222,350);
},
{
name = ogonek;
pos = (398,10);
},
{
name = top;
pos = (222,700);
},
{
name = topleft;
pos = (22,700);
},
{
name = topright;
pos = (422,700);
}
);
backgroundImage = {
imagePath = "png/OPQRS.png";
locked = 1;
pos = (-101,-1581);
scale = (4.6,4.6);
};
hints = (
{
name = _corner.ROUND;
origin = (0,1);
type = Corner;
},
{
name = _corner.ROUND;
origin = (0,2);
type = Corner;
},
{
name = _corner.ROUND;
origin = (1,0);
scale = (0.3,0.3);
type = Corner;
},
{
name = _corner.ROUND;
options = 2;
origin = (1,3);
scale = (-0.3,0.3);
type = Corner;
},
{
name = _corner.ROUND;
origin = (1,1);
scale = (0.3,0.3);
type = Corner;
},
{
name = _corner.ROUND;
options = 2;
origin = (1,2);
scale = (-0.3,0.3);
type = Corner;
},
{
name = _corner.ROUND;
origin = (0,3);
type = Corner;
},
{
name = _corner.ROUND;
origin = (0,0);
type = Corner;
}
);
layerId = m01;
shapes = (
{
closed = 1;
nodes = (
(22,0,l),
(422,0,l),
(422,700,l),
(22,700,l)
);
},
{
closed = 1;
nodes = (
(272,110,l),
(172,110,l),
(172,590,l),
(272,590,l)
);
}
);
width = 444;
}
);
unicode = 79;
},
{
glyphname = P;
kernLeft = H;
kernRight = P;
lastChange = "2025-04-17 20:22:12 +0000";
layers = (
{
backgroundImage = {
imagePath = "png/OPQRS.png";
pos = (-650,-1571);
scale = (4.6,4.6);
};
hints = (
{
name = _corner.ROUND;
origin = (0,3);
scale = (1.08,1.08);
type = Corner;
},
{
name = _corner.ROUND;
origin = (0,4);
scale = (1.08,1.08);
type = Corner;
},
{
name = _corner.ROUND;
origin = (1,0);
scale = (0.3,0.3);
type = Corner;
},
{
name = _corner.ROUND;
options = 2;
origin = (1,3);
scale = (-0.3,0.3);
type = Corner;
}
);
layerId = m01;
shapes = (
{
closed = 1;
nodes = (
(25,0,l),
(175,0,l),
(175,295,l),
(425,295,l),
(425,700,l),
(25,700,l)
);
},
{
closed = 1;
nodes = (
(275,405,l),
(175,405,l),
(175,590,l),
(275,590,l)
);
}
);
width = 442;
}
);
metricLeft = H;
metricRight = "=O*.75";
unicode = 80;
},
{
glyphname = Thorn;
kernLeft = H;
kernRight = Thorn;
lastChange = "2025-04-17 20:22:12 +0000";
layers = (
{
anchors = (
{
name = bottom;
pos = (223,0);
},
{
name = center;
pos = (111,350);
},
{
name = ogonek;
pos = (180,10);
},
{
name = top;
pos = (223,700);
},
{
name = topleft;
pos = (20,700);
}
);
hints = (
{
name = _corner.ROUND;
origin = (0,1);
scale = (1.08,1.08);
type = Corner;
},
{
name = _corner.ROUND;
origin = (0,2);
scale = (1.08,1.08);
type = Corner;
},
{
name = _corner.ROUND;
origin = (1,0);
scale = (0.3,0.3);
type = Corner;
},
{
name = _corner.ROUND;
options = 2;
origin = (1,3);
scale = (-0.3,0.3);
type = Corner;
}
);
layerId = m01;
shapes = (
{
closed = 1;
nodes = (
(25,125,l),
(425,125,l),
(425,525,l),
(25,525,l)
);
},
{
closed = 1;
nodes = (
(275,235,l),
(175,235,l),
(175,415,l),
(275,415,l)
);
},
{
closed = 1;
nodes = (
(25,0,l),
(175,0,l),
(175,700,l),
(25,700,l)
);
}
);
width = 447;
}
);
metricLeft = "=H";
metricRight = "=O";
unicode = 222;
},
{
glyphname = Q;
kernLeft = O;
kernRight = Q;
lastChange = "2025-04-17 22:11:21 +0000";
layers = (
{
backgroundImage = {
imagePath = "png/OPQRS.png";
pos = (-1193,-1571);
scale = (4.6,4.6);
};
hints = (
{
name = _corner.ROUND;
origin = (0,0);
type = Corner;
},
{
name = _corner.ROUND;
origin = (0,1);
type = Corner;
},
{
name = _corner.ROUND;
origin = (0,2);
type = Corner;
},
{
name = _corner.ROUND;
origin = (0,3);
type = Corner;
},
{
name = _corner.ROUND;
origin = (1,0);
scale = (0.3,0.3);
type = Corner;
},
{
name = _corner.ROUND;
origin = (1,1);
scale = (0.3,0.3);
type = Corner;
},
{
name = _corner.ROUND;
options = 2;
origin = (1,2);
scale = (-0.3,0.3);
type = Corner;
},
{
name = _corner.ROUND;
options = 2;
origin = (1,3);
scale = (-0.3,0.3);
type = Corner;
}
);
layerId = m01;
shapes = (
{
closed = 1;
nodes = (
(22,0,l),
(422,0,l),
(422,700,l),
(22,700,l)
);
},
{
closed = 1;
nodes = (
(272,110,l),
(172,110,l),
(172,590,l),
(272,590,l)
);
},
{
closed = 1;
nodes = (
(385,-39,l),
(463,39,l),
(385,117,l),
(307,39,l)
);
}
);
width = 466;
}
);
metricLeft = O;
metricRight = "=O*.125";
unicode = 81;
},
{
glyphname = R;
kernLeft = H;
kernRight = R;
lastChange = "2025-04-17 20:22:12 +0000";
layers = (
{
background = {
hints = (
{
name = _corner.ROUND;
options = 2;
scale = (-0.3,0.3);
type = Corner;
},
{
name = _corner.ROUND;
scale = (0.8,0.8);
type = Corner;
},
{
name = _corner.ROUND;
scale = (0.8,0.8);
type = Corner;
},
{
name = _corner.ROUND;
scale = (0.3,0.3);
type = Corner;
},
{
name = _corner.ROUND;
options = 2;
scale = (-0.3,0.3);
type = Corner;
},
{
name = _corner.ROUND;
options = 2;
origin = (0,3);
scale = (-0.3,0.3);
type = Corner;
},
{
name = _segment.DOUBLECUT;
origin = (0,7);
type = Segment;
},
{
name = _corner.ROUND;
origin = (0,8);
scale = (0.8,0.8);
type = Corner;
},
{
name = _corner.ROUND;
origin = (1,0);
scale = (0.3,0.3);
type = Corner;
},
{
name = _corner.ROUND;
options = 2;
origin = (1,3);
scale = (-0.3,0.3);
type = Corner;
}
);
shapes = (
{
closed = 1;
nodes = (
(25,0,l),
(175,0,l),
(175,295,l),
(275,295,l),
(275,0,l),
(425,0,l),
(425,248,l),
(425,452,l),
(425,700,l),
(25,700,l)
);
},
{
closed = 1;
nodes = (
(275,405,l),
(175,405,l),
(175,590,l),
(275,590,l)
);
}
);
};
backgroundImage = {
imagePath = "png/OPQRS.png";
locked = 1;
pos = (-1710,-1561);
scale = (4.6,4.6);
};
hints = (
{
name = _corner.ROUND;
origin = (0,8);
scale = (1.08,1.08);
type = Corner;
},
{
name = _corner.ROUND;
origin = (1,0);
scale = (0.3,0.3);
type = Corner;
},
{
name = _corner.ROUND;
options = 2;
origin = (1,3);
scale = (-0.3,0.3);
type = Corner;
},
{
name = _corner.ROUND;
origin = (0,8);
scale = (0.8,0.8);
type = Corner;
},
{
name = _corner.ROUND;
options = 2;
origin = (0,3);
scale = (-0.3,0.3);
type = Corner;
},
{
name = _segment.DOUBLECUT;
origin = (0,7);
type = Segment;
}
);
layerId = m01;
shapes = (
{
closed = 1;
nodes = (
(25,0,l),
(175,0,l),
(175,295,l),
(275,295,l),
(275,0,l),
(425,0,l),
(425,248,l),
(425,452,l),
(425,700,l),
(25,700,l)
);
},
{
closed = 1;
nodes = (
(275,405,l),
(175,405,l),
(175,590,l),
(275,590,l)
);
}
);
width = 447;
}
);
metricLeft = H;
metricRight = O;
unicode = 82;
},
{
glyphname = S;
kernLeft = S;
kernRight = S;
lastChange = "2025-04-17 22:20:57 +0000";
layers = (
{
background = {
hints = (
{
name = _corner.ROUND;
type = Corner;
},
{
name = _corner.ROUND;
scale = (0.3,0.3);
type = Corner;
},
{
name = _corner.ROUND;
options = 2;
scale = (-0.3,0.3);
type = Corner;
},
{
name = _corner.ROUND;
scale = (1.08,1.08);
type = Corner;
},
{
name = _corner.ROUND;
type = Corner;
},
{
name = _corner.ROUND;
options = 1;
scale = (0.5,0.5);
type = Corner;
},
{
name = _corner.ROUND;
type = Corner;
},
{
name = _corner.ROUND;
options = 2;
scale = (-0.3,0.3);
type = Corner;
},
{
name = _corner.ROUND;
scale = (0.3,0.3);
type = Corner;
},
{
name = _corner.ROUND;
type = Corner;
},
{
name = _corner.ROUND;
scale = (1.08,1.08);
type = Corner;
},
{
name = _corner.ROUND;
options = 1;
scale = (0.5,0.5);
type = Corner;
},
{
name = _corner.ROUND;
type = Corner;
},
{
name = _corner.ROUND;
scale = (0.3,0.3);
type = Corner;
},
{
name = _corner.ROUND;
options = 2;
scale = (-0.3,0.3);
type = Corner;
},
{
name = _corner.ROUND;
scale = (1.08,1.08);
type = Corner;
},
{
name = _corner.ROUND;
type = Corner;
},
{
name = _corner.ROUND;
options = 1;
scale = (0.5,0.5);
type = Corner;
},
{
name = _corner.ROUND;
type = Corner;
},
{
name = _corner.ROUND;
options = 2;
scale = (-0.3,0.3);
type = Corner;
},
{
name = _corner.ROUND;
scale = (0.3,0.3);
type = Corner;
},
{
name = _corner.ROUND;
type = Corner;
},
{
name = _corner.ROUND;
scale = (1.08,1.08);
type = Corner;
},
{
name = _corner.ROUND;
options = 1;
scale = (0.5,0.5);
type = Corner;
},
{
name = _corner.ROUND;
scale = (0.3,0.3);
type = Corner;
},
{
name = _corner.ROUND;
options = 2;
scale = (-0.3,0.3);
type = Corner;
},
{
name = _corner.ROUND;
scale = (1.08,1.08);
type = Corner;
},
{
name = _corner.ROUND;
type = Corner;
},
{
name = _corner.ROUND;
options = 2;
scale = (-0.3,0.3);
type = Corner;
},
{
name = _corner.ROUND;
scale = (0.3,0.3);
type = Corner;
},
{
name = _corner.ROUND;
type = Corner;
},
{
name = _corner.ROUND;
scale = (1.08,1.08);
type = Corner;
},
{
name = _corner.ROUND;
scale = (0.3,0.3);
type = Corner;
},
{
name = _corner.ROUND;
options = 2;
scale = (-0.3,0.3);
type = Corner;
},
{
name = _corner.ROUND;
scale = (1.08,1.08);
type = Corner;
},
{
name = _corner.ROUND;
type = Corner;
},
{
name = _corner.ROUND;
options = 2;
scale = (-0.3,0.3);
type = Corner;
},
{
name = _corner.ROUND;
scale = (0.3,0.3);
type = Corner;
},
{
name = _corner.ROUND;
type = Corner;
},
{
name = _corner.ROUND;
scale = (1.08,1.08);
type = Corner;
},
{
name = _corner.ROUND;
origin = (0,2);
scale = (0.3,0.3);
type = Corner;
},
{
name = _corner.ROUND;
options = 2;
origin = (0,3);
scale = (-0.3,0.3);
type = Corner;
},
{
name = _corner.ROUND;
origin = (0,6);
scale = (1.08,1.08);
type = Corner;
},
{
name = _corner.ROUND;
origin = (0,7);
type = Corner;
},
{
name = _corner.ROUND;
options = 2;
origin = (0,12);
scale = (-0.3,0.3);
type = Corner;
},
{
name = _corner.ROUND;
origin = (0,13);
scale = (0.3,0.3);
type = Corner;
},
{
name = _corner.ROUND;
origin = (0,16);
type = Corner;
},
{
name = _corner.ROUND;
origin = (0,17);
scale = (1.08,1.08);
type = Corner;
}
);
shapes = (
{
closed = 1;
nodes = (
(171,419,o),
(172,515,c),
(172,590,l),
(272,590,l),
(272,485,l),
(422,485,l),
(422,700,l),
(22,700,l),
(22,495,l),
(22,321,o),
(273,295,o),
(272,185,c),
(272,110,l),
(172,110,l),
(172,215,l),
(22,215,l),
(22,0,l),
(422,0,l),
(422,205,l),
(422,386,o)
);
}
);
};
backgroundImage = {
imagePath = "png/OPQRS.png";
locked = 1;
pos = (-2243,-1547);
scale = (4.6,4.6);
};
hints = (
{
name = _corner.ROUND;
origin = (0,6);
scale = (1.08,1.08);
type = Corner;
},
{
name = _corner.ROUND;
origin = (0,7);
scale = (1.08,1.08);
type = Corner;
},
{
name = _corner.ROUND;
origin = (0,2);
scale = (0.3,0.3);
type = Corner;
},
{
name = _corner.ROUND;
options = 2;
origin = (0,3);
scale = (-0.3,0.3);
type = Corner;
},
{
name = _corner.ROUND;
origin = (0,13);
scale = (0.3,0.3);
type = Corner;
},
{
name = _corner.ROUND;
options = 2;
origin = (0,12);
scale = (-0.3,0.3);
type = Corner;
},
{
name = _corner.ROUND;
origin = (0,17);
scale = (1.08,1.08);
type = Corner;
},
{
name = _corner.ROUND;
origin = (0,16);
scale = (1.08,1.08);
type = Corner;
}
);
layerId = m01;
shapes = (
{
closed = 1;
nodes = (
(171,405,o),
(172,515,c),
(172,590,l),
(272,590,l),
(272,485,l),
(422,485,l),
(422,700,l),
(22,700,l),
(22,495,l),
(22,321,o),
(272,295,o),
(272,185,c),
(272,110,l),
(172,110,l),
(172,215,l),
(22,215,l),
(22,0,l),
(422,0,l),
(422,205,l),
(422,379,o)
);
}
);
width = 444;
}
);
metricLeft = O;
metricRight = O;
unicode = 83;
},
{
glyphname = Germandbls;
kernLeft = Germandbls;
kernRight = Germandbls;
lastChange = "2025-04-17 20:22:12 +0000";
layers = (
{
background = {
hints = (
{
name = _corner.ROUND;
origin = (0,1);
scale = (1.08,1.08);
type = Corner;
},
{
name = _segment.DOUBLECUT;
origin = (0,3);
type = Segment;
},
{
name = _corner.ROUND;
origin = (0,4);
scale = (0.8,0.8);
type = Corner;
},
{
name = _corner.ROUND;
origin = (1,0);
scale = (0.3,0.3);
type = Corner;
},
{
name = _corner.ROUND;
options = 2;
origin = (1,3);
scale = (-0.3,0.3);
type = Corner;
},
{
name = _corner.ROUND;
origin = (2,0);
scale = (0.3,0.3);
type = Corner;
},
{
name = _corner.ROUND;
options = 2;
origin = (2,3);
scale = (-0.3,0.3);
type = Corner;
}
);
shapes = (
{
closed = 1;
nodes = (
(225,0,l),
(475,0,l),
(475,248,l),
(475,452,l),
(475,700,l),
(225,700,l)
);
},
{
closed = 1;
nodes = (
(325,405,l),
(225,405,l),
(225,590,l),
(325,590,l)
);
},
{
closed = 1;
nodes = (
(325,110,l),
(225,110,l),
(225,295,l),
(325,295,l)
);
}
);
};
hints = (
{
name = _corner.ROUND;
origin = (0,12);
scale = (1.08,1.08);
type = Corner;
},
{
name = _corner.ROUND;
origin = (0,15);
scale = (0.75,0.75);
type = Corner;
},
{
name = _corner.ROUND;
origin = (0,5);
scale = (0.3,0.3);
type = Corner;
},
{
name = _corner.ROUND;
options = 2;
origin = (0,4);
scale = (-0.3,0.3);
type = Corner;
},
{
name = _corner.ROUND;
origin = (0,9);
scale = (0.3,0.3);
type = Corner;
},
{
name = _corner.ROUND;
options = 2;
origin = (0,8);
scale = (-0.3,0.3);
type = Corner;
},
{
name = _segment.DOUBLECUT;
origin = (0,14);
type = Segment;
}
);
layerId = m01;
shapes = (
{
closed = 1;
nodes = (
(25,700,l),
(25,0,l),
(175,0,l),
(175,590,l),
(325,590,l),
(325,405,l),
(255,405,l),
(255,295,l),
(325,295,l),
(325,110,l),
(225,110,l),
(225,0,l),
(475,0,l),
(475,248,l),
(475,452,l),
(475,700,l)
);
}
);
width = 497;
}
);
metricLeft = "=H";
metricRight = "=O";
unicode = 7838;
},
{
glyphname = T;
kernLeft = T;
kernRight = T;
lastChange = "2025-04-18 19:38:21 +0000";
layers = (
{
background = {
shapes = (
{
closed = 1;
nodes = (
(301,590,l),
(441,590,l),
(442,700,l),
(301,700,l)
);
},
{
closed = 1;
nodes = (
(151,0,l),
(301,0,l),
(301,700,l),
(151,700,l)
);
},
{
closed = 1;
nodes = (
(11,590,l),
(151,590,l),
(151,700,l),
(10,700,l)
);
}
);
};
layerId = m01;
shapes = (
{
closed = 1;
nodes = (
(151,0,l),
(301,0,l),
(301,700,l),
(151,700,l)
);
},
{
closed = 1;
nodes = (
(301,590,l),
(441,590,l),
(441,700,l),
(301,700,l)
);
},
{
closed = 1;
nodes = (
(11,590,l),
(151,590,l),
(151,700,l),
(11,700,l)
);
}
);
width = 452;
}
);
metricLeft = "=O*.5";
metricRight = "=O*.5";
unicode = 84;
},
{
glyphname = U;
kernLeft = U;
kernRight = U;
lastChange = "2025-04-17 21:36:40 +0000";
layers = (
{
anchors = (
{
name = bottom;
pos = (222,0);
},
{
name = ogonek;
pos = (398,10);
},
{
name = top;
pos = (222,700);
},
{
name = topright;
pos = (422,700);
}
);
backgroundImage = {
imagePath = "png/TUVW.png";
pos = (-550,-1342);
scale = (4.15,4.15);
};
hints = (
{
name = _corner.ROUND;
origin = (0,0);
type = Corner;
},
{
name = _corner.ROUND;
origin = (0,1);
type = Corner;
},
{
name = _corner.ROUND;
origin = (0,4);
scale = (0.3,0.3);
type = Corner;
},
{
name = _corner.ROUND;
origin = (0,5);
scale = (0.3,0.3);
type = Corner;
}
);
layerId = m01;
shapes = (
{
closed = 1;
nodes = (
(22,0,l),
(422,0,l),
(422,700,l),
(272,700,l),
(272,110,l),
(172,110,l),
(172,700,l),
(22,700,l)
);
}
);
width = 444;
}
);
metricLeft = O;
metricRight = O;
unicode = 85;
},
{
glyphname = V;
kernLeft = V;
kernRight = V;
lastChange = "2025-04-18 19:38:30 +0000";
layers = (
{
background = {
shapes = (
{
closed = 1;
nodes = (
(265,0,l),
(151,700,l),
(11,700,l),
(135,0,l)
);
},
{
closed = 1;
nodes = (
(461,700,l),
(321,700,l),
(207,0,l),
(337,0,l)
);
}
);
};
backgroundImage = {
imagePath = "png/TUVW.png";
locked = 1;
pos = (-1064,-1342);
scale = (4.15,4.15);
};
layerId = m01;
shapes = (
{
closed = 1;
nodes = (
(336,0,l),
(461,700,l),
(311,700,l),
(236,200,l),
(161,700,l),
(11,700,l),
(136,0,l)
);
}
);
width = 472;
}
);
metricLeft = "=O*.5";
metricRight = "=O*.5";
unicode = 86;
},
{
glyphname = W;
kernLeft = W;
kernRight = W;
lastChange = "2025-04-18 19:38:32 +0000";
layers = (
{
anchors = (
{
name = bottom;
pos = (381,0);
},
{
name = top;
pos = (381,700);
}
);
background = {
shapes = (
{
closed = 1;
nodes = (
(266,0,l),
(151,700,l),
(1,700,l),
(125,0,l)
);
},
{
closed = 1;
nodes = (
(456,700,l),
(306,700,l),
(187,0,l),
(327,0,l)
);
},
{
closed = 1;
nodes = (
(573,0,l),
(456,700,l),
(306,700,l),
(435,0,l)
);
},
{
closed = 1;
nodes = (
(761,700,l),
(611,700,l),
(497,0,l),
(637,0,l)
);
}
);
};
backgroundImage = {
imagePath = "png/TUVW.png";
pos = (-1609,-1342);
scale = (4.15,4.15);
};
layerId = m01;
shapes = (
{
closed = 1;
nodes = (
(331,0,l),
(381,292,l),
(431,0,l),
(626,0,l),
(751,700,l),
(601,700,l),
(528,253,l),
(451,700,l),
(311,700,l),
(234,253,l),
(161,700,l),
(11,700,l),
(136,0,l)
);
}
);
width = 762;
}
);
metricLeft = "=O*.5";
metricRight = "=O*.5";
unicode = 87;
},
{
glyphname = X;
kernLeft = X;
kernRight = X;
lastChange = "2025-04-17 21:35:53 +0000";
layers = (
{
background = {
shapes = (
{
closed = 1;
nodes = (
(411,0,l),
(151,700,l),
(11,700,l),
(271,0,l)
);
},
{
closed = 1;
nodes = (
(411,700,l),
(271,700,l),
(11,0,l),
(151,0,l)
);
}
);
};
backgroundImage = {
imagePath = "png/XYZ.png";
pos = (-558,-1455);
scale = (4.4,4.4);
};
layerId = m01;
shapes = (
{
closed = 1;
nodes = (
(411,0,l),
(281,350,l),
(411,700,l),
(271,700,l),
(211,525,l),
(151,700,l),
(11,700,l),
(141,350,l),
(11,0,l),
(151,0,l),
(211,175,l),
(271,0,l)
);
}
);
width = 422;
}
);
metricLeft = "=O*0.5";
metricRight = "=O*.5";
unicode = 88;
},
{
glyphname = Y;
kernLeft = Y;
kernRight = Y;
lastChange = "2025-04-18 19:25:52 +0000";
layers = (
{
anchors = (
{
name = bottom;
pos = (236,0);
},
{
name = top;
pos = (236,700);
},
{
name = topleft;
pos = (21,700);
}
);
background = {
shapes = (
{
closed = 1;
nodes = (
(168,0,l),
(308,0,l),
(306,230,l),
(166,230,l)
);
},
{
closed = 1;
nodes = (
(295,230,l),
(151,700,l),
(11,700,l),
(166,230,l)
);
},
{
closed = 1;
nodes = (
(462,700,l),
(322,700,l),
(178,230,l),
(306,230,l)
);
}
);
};
layerId = m01;
shapes = (
{
closed = 1;
nodes = (
(161,0,l),
(311,0,l),
(311,230,l),
(461,700,l),
(311,700,l),
(235,424,l),
(161,700,l),
(11,700,l),
(161,230,l)
);
}
);
width = 472;
}
);
metricLeft = "=O*.5";
metricRight = "=O*.5";
unicode = 89;
},
{
glyphname = Z;
kernLeft = Z;
kernRight = Z;
lastChange = "2025-04-17 20:22:12 +0000";
layers = (
{
background = {
shapes = (
{
closed = 0;
nodes = (
(417,700,l)
);
}
);
};
layerId = m01;
shapes = (
{
closed = 1;
nodes = (
(387,570,l),
(237,570,l),
(17,130,l),
(167,130,l)
);
},
{
closed = 1;
nodes = (
(17,570,l),
(387,570,l),
(387,700,l),
(17,700,l)
);
},
{
closed = 1;
nodes = (
(17,0,l),
(387,0,l),
(387,130,l),
(17,130,l)
);
}
);
width = 404;
}
);
metricLeft = "=O*.75";
metricRight = "=O*.75";
unicode = 90;
},
{
glyphname = a;
kernLeft = a;
kernRight = n;
lastChange = "2025-04-18 19:40:21 +0000";
layers = (
{
anchors = (
{
name = bottom;
pos = (206,0);
},
{
name = ogonek;
pos = (371,10);
},
{
name = top;
pos = (206,525);
}
);
hints = (
{
name = _corner.ROUND;
origin = (0,7);
scale = (0.3,0.3);
type = Corner;
},
{
name = _corner.ROUND;
options = 2;
origin = (0,6);
scale = (-0.3,0.3);
type = Corner;
},
{
name = _corner.ROUND;
origin = (0,3);
type = Corner;
},
{
name = _corner.ROUND;
origin = (0,2);
type = Corner;
},
{
name = _corner.ROUND;
options = 2;
origin = (1,1);
scale = (-0.2,0.2);
type = Corner;
},
{
name = _corner.ROUND;
origin = (1,0);
scale = (0.3,0.3);
type = Corner;
},
{
name = _corner.ROUND;
origin = (0,6);
scale = (0.3,0.3);
type = Corner;
},
{
name = _corner.ROUND;
origin = (0,7);
scale = (0.3,0.3);
type = Corner;
},
{
name = _corner.ROUND;
origin = (0,12);
scale = (0.75,0.75);
type = Corner;
},
{
name = _segment.CUT;
options = 1;
origin = (0,14);
scale = (-1,1);
type = Segment;
}
);
layerId = m01;
shapes = (
{
closed = 1;
nodes = (
(387,0,l),
(387,380,l),
(387,525,l),
(22,525,l),
(22,360,l),
(162,360,l),
(162,425,l),
(247,425,l),
(247,370,l),
(247,294,o),
(22,351,o),
(22,185,c),
(22,0,l),
(162,0,l),
(247,0,l)
);
},
{
closed = 1;
nodes = (
(247,100,l),
(162,100,l),
(162,195,ls),
(162,232,o),
(201,240,o),
(247,250,c)
);
}
);
width = 412;
}
);
metricLeft = "=o";
metricRight = "=h";
unicode = 97;
},
{
glyphname = b;
kernLeft = h;
kernRight = o;
lastChange = "2025-04-17 20:04:21 +0000";
layers = (
{
background = {
hints = (
{
name = _segment.CUT;
type = Segment;
},
{
name = _corner.ROUND;
type = Corner;
},
{
name = _corner.ROUND;
type = Corner;
},
{
name = _segment.CUT;
options = 1;
scale = (-1,1);
type = Segment;
},
{
name = _corner.ROUND;
scale = (0.3,0.3);
type = Corner;
},
{
name = _corner.ROUND;
scale = (0.3,0.3);
type = Corner;
},
{
name = _corner.ROUND;
options = 2;
scale = (-0.3,0.3);
type = Corner;
},
{
name = _corner.ROUND;
options = 2;
scale = (-0.3,0.3);
type = Corner;
},
{
name = _segment.CUT;
type = Segment;
},
{
name = _corner.ROUND;
type = Corner;
},
{
name = _corner.ROUND;
type = Corner;
},
{
name = _segment.CUT;
options = 1;
scale = (-1,1);
type = Segment;
},
{
name = _corner.ROUND;
scale = (0.3,0.3);
type = Corner;
},
{
name = _corner.ROUND;
scale = (0.3,0.3);
type = Corner;
},
{
name = _corner.ROUND;
options = 2;
scale = (-0.3,0.3);
type = Corner;
},
{
name = _corner.ROUND;
options = 2;
scale = (-0.3,0.3);
type = Corner;
},
{
name = _segment.CUT;
origin = (0,1);
type = Segment;
},
{
name = _corner.ROUND;
origin = (0,2);
type = Corner;
},
{
name = _corner.ROUND;
origin = (0,3);
type = Corner;
},
{
name = _segment.CUT;
options = 1;
origin = (0,5);
scale = (-1,1);
type = Segment;
},
{
name = _corner.ROUND;
origin = (1,0);
scale = (0.3,0.3);
type = Corner;
},
{
name = _corner.ROUND;
origin = (1,1);
scale = (0.3,0.3);
type = Corner;
},
{
name = _corner.ROUND;
options = 2;
origin = (1,2);
scale = (-0.3,0.3);
type = Corner;
},
{
name = _corner.ROUND;
options = 2;
origin = (1,3);
scale = (-0.3,0.3);
type = Corner;
}
);
shapes = (
{
closed = 1;
nodes = (
(165,0,l),
(250,0,l),
(390,0,l),
(390,530,l),
(250,530,l),
(165,530,l),
(165,700,l),
(25,700,l),
(25,0,l)
);
},
{
closed = 1;
nodes = (
(165,430,l),
(250,430,l),
(250,100,l),
(165,100,l)
);
}
);
};
guides = (
{
angle = 89.6562;
pos = (258,250);
}
);
hints = (
{
name = _corner.BASE;
type = Corner;
},
{
name = _corner.BASE;
scale = (1.08,1.08);
type = Corner;
},
{
name = _corner.BASE;
scale = (1.08,1.08);
type = Corner;
},
{
name = _corner.BASE;
type = Corner;
},
{
name = _corner.BASE;
scale = (0.3,0.3);
type = Corner;
},
{
name = _corner.BASE;
options = 2;
scale = (-0.3,0.3);
type = Corner;
},
{
name = _corner.BASE;
scale = (0.3,0.3);
type = Corner;
},
{
name = _corner.BASE;
options = 2;
scale = (-0.3,0.3);
type = Corner;
},
{
name = _corner.ROUND;
type = Corner;
},
{
name = _corner.ROUND;
type = Corner;
},
{
name = _corner.ROUND;
type = Corner;
},
{
name = _corner.ROUND;
type = Corner;
},
{
name = _corner.ROUND;
scale = (0.3,0.3);
type = Corner;
},
{
name = _corner.ROUND;
scale = (0.3,0.3);
type = Corner;
},
{
name = _corner.ROUND;
options = 2;
scale = (-0.3,0.3);
type = Corner;
},
{
name = _corner.ROUND;
options = 2;
scale = (-0.3,0.3);
type = Corner;
},
{
name = _corner.ROUND;
type = Corner;
},
{
name = _corner.ROUND;
type = Corner;
},
{
name = _corner.ROUND;
type = Corner;
},
{
name = _corner.ROUND;
type = Corner;
},
{
name = _corner.ROUND;
options = 2;
scale = (-0.3,0.3);
type = Corner;
},
{
name = _corner.ROUND;
scale = (0.3,0.3);
type = Corner;
},
{
name = _corner.ROUND;
scale = (0.3,0.3);
type = Corner;
},
{
name = _corner.ROUND;
options = 2;
scale = (-0.3,0.3);
type = Corner;
},
{
name = _segment.CUT;
type = Segment;
},
{
name = _corner.ROUND;
type = Corner;
},
{
name = _corner.ROUND;
type = Corner;
},
{
name = _corner.ROUND;
options = 2;
scale = (-0.3,0.3);
type = Corner;
},
{
name = _corner.ROUND;
scale = (0.3,0.3);
type = Corner;
},
{
name = _corner.ROUND;
scale = (0.3,0.3);
type = Corner;
},
{
name = _corner.ROUND;
options = 2;
scale = (-0.3,0.3);
type = Corner;
},
{
name = _segment.CUT;
origin = (0,1);
type = Segment;
},
{
name = _corner.ROUND;
origin = (0,2);
type = Corner;
},
{
name = _corner.ROUND;
origin = (0,3);
type = Corner;
},
{
name = _segment.CUT;
options = 1;
origin = (0,5);
scale = (-1,1);
type = Segment;
},
{
name = _corner.ROUND;
origin = (1,0);
scale = (0.3,0.3);
type = Corner;
},
{
name = _corner.ROUND;
origin = (1,1);
scale = (0.3,0.3);
type = Corner;
},
{
name = _corner.ROUND;
options = 2;
origin = (1,2);
scale = (-0.3,0.3);
type = Corner;
},
{
name = _corner.ROUND;
options = 2;
origin = (1,3);
scale = (-0.3,0.3);
type = Corner;
}
);
layerId = m01;
shapes = (
{
closed = 1;
nodes = (
(165,0,l),
(250,0,l),
(390,0,l),
(390,525,l),
(250,525,l),
(165,525,l),
(165,700,l),
(25,700,l),
(25,0,l)
);
},
{
closed = 1;
nodes = (
(165,425,l),
(250,425,l),
(250,100,l),
(165,100,l)
);
}
);
width = 412;
}
);
metricLeft = h;
metricRight = "=o";
unicode = 98;
},
{
glyphname = c;
kernLeft = o;
kernRight = c;
lastChange = "2025-04-17 20:04:21 +0000";
layers = (
{
anchors = (
{
name = bottom;
pos = (205,0);
},
{
name = top;
pos = (205,525);
}
);
background = {
hints = (
{
name = _corner.ROUND;
origin = (0,0);
type = Corner;
},
{
name = _corner.ROUND;
origin = (0,1);
type = Corner;
},
{
name = _corner.ROUND;
origin = (0,2);
type = Corner;
},
{
name = _corner.ROUND;
origin = (0,5);
scale = (0.3,0.3);
type = Corner;
},
{
name = _corner.ROUND;
origin = (0,6);
scale = (0.3,0.3);
type = Corner;
},
{
name = _corner.ROUND;
options = 2;
origin = (0,7);
scale = (-0.3,0.3);
type = Corner;
},
{
name = _corner.ROUND;
options = 2;
origin = (0,8);
scale = (-0.3,0.3);
type = Corner;
},
{
name = _corner.ROUND;
origin = (0,11);
type = Corner;
}
);
shapes = (
{
closed = 1;
nodes = (
(22,530,l),
(22,0,l),
(387,0,l),
(387,181,l),
(247,181,l),
(247,100,l),
(162,100,l),
(162,430,l),
(247,430,l),
(247,341,l),
(387,341,l),
(387,530,l)
);
}
);
};
hints = (
{
name = _corner.ROUND;
origin = (0,0);
type = Corner;
},
{
name = _corner.ROUND;
origin = (0,1);
type = Corner;
},
{
name = _corner.ROUND;
origin = (0,2);
type = Corner;
},
{
name = _corner.ROUND;
origin = (0,11);
type = Corner;
},
{
name = _corner.ROUND;
origin = (0,5);
scale = (0.3,0.3);
type = Corner;
},
{
name = _corner.ROUND;
origin = (0,6);
scale = (0.3,0.3);
type = Corner;
},
{
name = _corner.ROUND;
options = 2;
origin = (0,7);
scale = (-0.3,0.3);
type = Corner;
},
{
name = _corner.ROUND;
options = 2;
origin = (0,8);
scale = (-0.3,0.3);
type = Corner;
}
);
layerId = m01;
shapes = (
{
closed = 1;
nodes = (
(22,525,l),
(22,0,l),
(387,0,l),
(387,185,l),
(247,185,l),
(247,100,l),
(162,100,l),
(162,425,l),
(247,425,l),
(247,340,l),
(387,340,l),
(387,525,l)
);
}
);
width = 409;
}
);
metricLeft = "=o";
metricRight = "=o";
unicode = 99;
},
{
glyphname = d;
kernLeft = o;
kernRight = l;
lastChange = "2025-04-18 19:39:53 +0000";
layers = (
{
anchors = (
{
name = bottom;
pos = (206,0);
},
{
name = center;
pos = (309,640);
},
{
name = top;
pos = (206,525);
},
{
name = topright;
pos = (392,800);
}
);
background = {
hints = (
{
name = _segment.CUT;
origin = (0,3);
type = Segment;
},
{
name = _corner.ROUND;
origin = (0,4);
type = Corner;
},
{
name = _corner.ROUND;
origin = (0,5);
type = Corner;
},
{
name = _segment.CUT;
options = 1;
origin = (0,7);
scale = (-1,1);
type = Segment;
},
{
name = _corner.ROUND;
options = 2;
origin = (1,0);
scale = (-0.3,0.3);
type = Corner;
},
{
name = _corner.ROUND;
origin = (1,1);
scale = (0.3,0.3);
type = Corner;
},
{
name = _corner.ROUND;
origin = (1,2);
scale = (0.3,0.3);
type = Corner;
},
{
name = _corner.ROUND;
options = 2;
origin = (1,3);
scale = (-0.3,0.3);
type = Corner;
}
);
shapes = (
{
closed = 1;
nodes = (
(387,699,l),
(247,699,l),
(247,529,l),
(162,529,l),
(22,529,l),
(22,-1,l),
(162,-1,l),
(247,-1,l),
(387,-1,l)
);
},
{
closed = 1;
nodes = (
(162,99,l),
(162,429,l),
(247,429,l),
(247,99,l)
);
}
);
};
hints = (
{
name = _corner.ROUND;
origin = (0,4);
type = Corner;
},
{
name = _corner.ROUND;
origin = (1,2);
scale = (0.3,0.3);
type = Corner;
},
{
name = _corner.ROUND;
origin = (1,1);
scale = (0.3,0.3);
type = Corner;
},
{
name = _corner.ROUND;
options = 2;
origin = (1,0);
scale = (-0.3,0.3);
type = Corner;
},
{
name = _corner.ROUND;
options = 2;
origin = (1,3);
scale = (-0.3,0.3);
type = Corner;
},
{
name = _segment.CUT;
origin = (0,3);
type = Segment;
},
{
name = _corner.ROUND;
origin = (0,5);
type = Corner;
},
{
name = _segment.CUT;
options = 1;
origin = (0,7);
scale = (-1,1);
type = Segment;
}
);
layerId = m01;
shapes = (
{
closed = 1;
nodes = (
(387,700,l),
(247,700,l),
(247,525,l),
(162,525,l),
(22,525,l),
(22,0,l),
(162,0,l),
(247,0,l),
(387,0,l)
);
},
{
closed = 1;
nodes = (
(162,100,l),
(162,425,l),
(247,425,l),
(247,100,l)
);
}
);
width = 412;
}
);
metricLeft = "=o";
metricRight = "=h";
unicode = 100;
},
{
glyphname = e;
kernLeft = o;
kernRight = e;
lastChange = "2025-04-18 18:44:59 +0000";
layers = (
{
anchors = (
{
name = bottom;
pos = (205,0);
},
{
name = ogonek;
pos = (368,10);
},
{
name = top;
pos = (205,525);
}
);
hints = (
{
name = _corner.ROUND;
type = Corner;
},
{
name = _corner.ROUND;
options = 2;
scale = (-0.3,0.3);
type = Corner;
},
{
name = _corner.ROUND;
options = 2;
scale = (-0.3,0.3);
type = Corner;
},
{
name = _corner.ROUND;
type = Corner;
},
{
name = _corner.ROUND;
type = Corner;
},
{
name = _corner.ROUND;
type = Corner;
},
{
name = _corner.ROUND;
scale = (0.3,0.3);
type = Corner;
},
{
name = _corner.ROUND;
scale = (0.3,0.3);
type = Corner;
},
{
name = _corner.ROUND;
origin = (0,0);
scale = (1.08,1.08);
type = Corner;
},
{
name = _corner.ROUND;
origin = (0,1);
scale = (1.08,1.08);
type = Corner;
},
{
name = _corner.ROUND;
origin = (0,2);
scale = (1.08,1.08);
type = Corner;
},
{
name = _corner.ROUND;
origin = (0,9);
scale = (1.08,1.08);
type = Corner;
},
{
name = _corner.ROUND;
origin = (0,5);
scale = (0.3,0.3);
type = Corner;
},
{
name = _corner.ROUND;
origin = (0,6);
scale = (0.3,0.3);
type = Corner;
},
{
name = _corner.ROUND;
options = 2;
origin = (1,2);
scale = (-0.3,0.3);
type = Corner;
},
{
name = _corner.ROUND;
options = 2;
origin = (1,3);
scale = (-0.3,0.3);
type = Corner;
}
);
layerId = m01;
shapes = (
{
closed = 1;
nodes = (
(22,525,l),
(22,0,l),
(387,0,l),
(387,171,l),
(247,171,l),
(247,100,l),
(162,100,l),
(162,241,l),
(387,241,l),
(387,525,l)
);
},
{
closed = 1;
nodes = (
(247,321,l),
(162,321,l),
(162,425,l),
(247,425,l)
);
}
);
width = 409;
}
);
metricLeft = "=o";
metricRight = "=o";
unicode = 101;
},
{
glyphname = f;
kernLeft = f;
kernRight = f;
lastChange = "2025-04-17 22:19:13 +0000";
layers = (
{
hints = (
{
name = _corner.ROUND;
origin = (0,4);
type = Corner;
},
{
name = _corner.ROUND;
origin = (0,1);
scale = (0.3,0.3);
type = Corner;
}
);
layerId = m01;
shapes = (
{
closed = 1;
nodes = (
(223,0,l),
(223,600,l),
(293,600,l),
(293,700,l),
(83,700,l),
(83,0,l)
);
},
{
closed = 1;
nodes = (
(293,425,l),
(293,525,l),
(13,525,l),
(13,425,l)
);
}
);
width = 306;
}
);
metricLeft = "=h*.5";
metricRight = "=h*.5";
unicode = 102;
},
{
glyphname = g;
kernLeft = g;
kernRight = g;
lastChange = "2025-04-18 19:22:17 +0000";
layers = (
{
background = {
hints = (
{
name = _segment.CUT;
options = 1;
scale = (-1,1);
type = Segment;
},
{
name = _corner.ROUND;
type = Corner;
},
{
name = _segment.CUT;
type = Segment;
},
{
name = _corner.ROUND;
type = Corner;
},
{
name = _corner.ROUND;
type = Corner;
},
{
name = _corner.ROUND;
scale = (0.3,0.3);
type = Corner;
},
{
name = _corner.ROUND;
scale = (0.3,0.3);
type = Corner;
},
{
name = _corner.ROUND;
options = 2;
scale = (-0.3,0.3);
type = Corner;
},
{
name = _corner.ROUND;
options = 2;
scale = (-0.3,0.3);
type = Corner;
},
{
name = _corner.ROUND;
options = 2;
scale = (-0.3,0.3);
type = Corner;
},
{
name = _corner.ROUND;
options = 2;
scale = (-0.3,0.3);
type = Corner;
},
{
name = _corner.ROUND;
type = Corner;
},
{
name = _segment.CUT;
options = 1;
scale = (-1,1);
type = Segment;
},
{
name = _corner.ROUND;
type = Corner;
},
{
name = _segment.CUT;
type = Segment;
},
{
name = _corner.ROUND;
type = Corner;
},
{
name = _corner.ROUND;
type = Corner;
},
{
name = _corner.ROUND;
scale = (0.3,0.3);
type = Corner;
},
{
name = _corner.ROUND;
scale = (0.3,0.3);
type = Corner;
},
{
name = _corner.ROUND;
options = 2;
scale = (-0.3,0.3);
type = Corner;
},
{
name = _corner.ROUND;
options = 2;
scale = (-0.3,0.3);
type = Corner;
},
{
name = _corner.ROUND;
options = 2;
scale = (-0.3,0.3);
type = Corner;
},
{
name = _corner.ROUND;
options = 2;
scale = (-0.3,0.3);
type = Corner;
},
{
name = _corner.ROUND;
type = Corner;
},
{
name = _corner.ROUND;
type = Corner;
},
{
name = _corner.ROUND;
origin = (0,1);
type = Corner;
},
{
name = _segment.CUT;
origin = (0,4);
type = Segment;
},
{
name = _corner.ROUND;
origin = (0,5);
type = Corner;
},
{
name = _corner.ROUND;
origin = (0,6);
type = Corner;
},
{
name = _segment.CUT;
options = 1;
origin = (0,8);
scale = (-1,1);
type = Segment;
},
{
name = _corner.ROUND;
options = 2;
origin = (0,10);
scale = (-0.3,0.3);
type = Corner;
},
{
name = _corner.ROUND;
options = 2;
origin = (0,11);
scale = (-0.3,0.3);
type = Corner;
},
{
name = _corner.ROUND;
origin = (0,14);
type = Corner;
},
{
name = _corner.ROUND;
origin = (1,0);
scale = (0.3,0.3);
type = Corner;
},
{
name = _corner.ROUND;
origin = (1,1);
scale = (0.3,0.3);
type = Corner;
},
{
name = _corner.ROUND;
options = 2;
origin = (1,2);
scale = (-0.3,0.3);
type = Corner;
},
{
name = _corner.ROUND;
options = 2;
origin = (1,3);
scale = (-0.3,0.3);
type = Corner;
}
);
shapes = (
{
closed = 1;
nodes = (
(247,-175,l),
(387,-175,l),
(387,530,l),
(247,530,l),
(162,530,l),
(22,530,l),
(22,0,l),
(162,0,l),
(247,0,l),
(247,-25,l),
(247,-75,l),
(162,-75,l),
(162,-25,l),
(22,-25,l),
(22,-175,l),
(162,-175,l)
);
},
{
closed = 1;
nodes = (
(162,430,l),
(247,430,l),
(247,100,l),
(162,100,l)
);
}
);
};
hints = (
{
name = _segment.CUT;
options = 1;
origin = (0,7);
scale = (-1,1);
type = Segment;
},
{
name = _corner.ROUND;
origin = (0,4);
type = Corner;
},
{
name = _corner.ROUND;
origin = (0,5);
type = Corner;
},
{
name = _corner.ROUND;
origin = (1,0);
scale = (0.3,0.3);
type = Corner;
},
{
name = _corner.ROUND;
origin = (1,1);
scale = (0.3,0.3);
type = Corner;
},
{
name = _corner.ROUND;
options = 2;
origin = (1,2);
scale = (-0.3,0.3);
type = Corner;
},
{
name = _corner.ROUND;
options = 2;
origin = (1,3);
scale = (-0.3,0.3);
type = Corner;
},
{
name = _corner.ROUND;
origin = (0,0);
type = Corner;
},
{
name = _corner.ROUND;
options = 2;
origin = (0,9);
scale = (-0.3,0.3);
type = Corner;
},
{
name = _corner.ROUND;
options = 2;
origin = (0,10);
scale = (-0.3,0.3);
type = Corner;
},
{
name = _corner.ROUND;
origin = (0,0);
type = Corner;
},
{
name = _corner.ROUND;
origin = (0,0);
type = Corner;
},
{
name = _corner.ROUND;
origin = (0,13);
type = Corner;
},
{
name = _segment.CUT;
origin = (0,3);
type = Segment;
}
);
layerId = m01;
shapes = (
{
closed = 1;
nodes = (
(387,-175,l),
(387,525,l),
(247,525,l),
(162,525,l),
(22,525,l),
(22,0,l),
(162,0,l),
(247,0,l),
(247,-25,l),
(247,-75,l),
(162,-75,l),
(162,-25,l),
(22,-25,l),
(22,-175,l)
);
},
{
closed = 1;
nodes = (
(162,425,l),
(247,425,l),
(247,100,l),
(162,100,l)
);
}
);
width = 412;
}
);
metricLeft = "=o";
metricRight = h;
unicode = 103;
},
{
glyphname = h;
kernLeft = h;
kernRight = n;
lastChange = "2025-04-17 20:04:21 +0000";
layers = (
{
background = {
hints = (
{
name = _corner.ROUND;
type = Corner;
},
{
name = _corner.ROUND;
options = 2;
scale = (-0.3,0.3);
type = Corner;
},
{
name = _corner.ROUND;
options = 2;
scale = (-0.3,0.3);
type = Corner;
},
{
name = _corner.ROUND;
type = Corner;
},
{
name = _corner.ROUND;
options = 2;
scale = (-0.3,0.3);
type = Corner;
},
{
name = _corner.ROUND;
options = 2;
scale = (-0.3,0.3);
type = Corner;
},
{
name = _corner.ROUND;
options = 2;
origin = (0,1);
scale = (-0.3,0.3);
type = Corner;
},
{
name = _corner.ROUND;
options = 2;
origin = (0,2);
scale = (-0.3,0.3);
type = Corner;
},
{
name = _corner.ROUND;
origin = (0,5);
type = Corner;
},
{
name = _segment.CUT;
options = 1;
origin = (0,7);
scale = (-1,1);
type = Segment;
}
);
shapes = (
{
closed = 1;
nodes = (
(165,0,l),
(165,430,l),
(250,430,l),
(250,0,l),
(390,0,l),
(390,530,l),
(250,530,l),
(165,530,l),
(165,700,l),
(25,700,l),
(25,0,l)
);
}
);
};
hints = (
{
name = _corner.ROUND;
origin = (0,5);
type = Corner;
},
{
name = _corner.ROUND;
options = 2;
origin = (0,1);
scale = (-0.3,0.3);
type = Corner;
},
{
name = _corner.ROUND;
options = 2;
origin = (0,2);
scale = (-0.3,0.3);
type = Corner;
},
{
name = _segment.CUT;
options = 1;
origin = (0,7);
scale = (-1,1);
type = Segment;
}
);
layerId = m01;
shapes = (
{
closed = 1;
nodes = (
(165,0,l),
(165,425,l),
(250,425,l),
(250,0,l),
(390,0,l),
(390,525,l),
(250,525,l),
(165,525,l),
(165,700,l),
(25,700,l),
(25,0,l)
);
}
);
width = 415;
}
);
unicode = 104;
},
{
glyphname = i;
kernLeft = i;
kernRight = i;
lastChange = "2025-04-17 22:35:50 +0000";
layers = (
{
layerId = m01;
shapes = (
{
closed = 1;
nodes = (
(165,675,l),
(25,675,l),
(25,575,l),
(165,575,l)
);
},
{
ref = idotless;
}
);
width = 190;
}
);
metricLeft = "=h";
metricRight = "=h";
unicode = 105;
},
{
glyphname = idotless;
kernLeft = i;
kernRight = i;
lastChange = "2025-04-17 20:04:21 +0000";
layers = (
{
anchors = (
{
name = bottom;
pos = (95,0);
},
{
name = ogonek;
pos = (165,0);
},
{
name = top;
pos = (95,525);
}
);
layerId = m01;
shapes = (
{
closed = 1;
nodes = (
(165,525,l),
(25,525,l),
(25,0,l),
(165,0,l)
);
}
);
width = 190;
}
);
unicode = 305;
},
{
glyphname = j;
kernLeft = j;
kernRight = j;
lastChange = "2025-04-18 19:36:33 +0000";
layers = (
{
background = {
hints = (
{
name = _corner.ROUND;
origin = (0,1);
scale = (0.3,0.3);
type = Corner;
},
{
name = _corner.ROUND;
origin = (0,5);
type = Corner;
}
);
shapes = (
{
closed = 1;
nodes = (
(33,530,l),
(33,-75,l),
(-37,-75,l),
(-37,-175,l),
(33,-175,l),
(173,-175,l),
(173,530,l)
);
},
{
closed = 1;
nodes = (
(173,680,l),
(33,680,l),
(33,580,l),
(173,580,l)
);
}
);
};
layerId = m01;
shapes = (
{
closed = 1;
nodes = (
(173,675,l),
(33,675,l),
(33,575,l),
(173,575,l)
);
},
{
ref = jdotless;
}
);
width = 198;
}
);
metricLeft = "=h*-1.5";
metricRight = "=h";
unicode = 106;
},
{
glyphname = jdotless;
kernLeft = j;
kernRight = j;
lastChange = "2025-04-17 20:04:21 +0000";
layers = (
{
hints = (
{
name = _corner.ROUND;
origin = (0,1);
scale = (0.3,0.3);
type = Corner;
},
{
name = _corner.ROUND;
origin = (0,4);
type = Corner;
}
);
layerId = m01;
shapes = (
{
closed = 1;
nodes = (
(33,525,l),
(33,-75,l),
(-37,-75,l),
(-37,-175,l),
(173,-175,l),
(173,525,l)
);
}
);
width = 198;
}
);
unicode = 567;
},
{
glyphname = k;
kernLeft = h;
kernRight = k;
lastChange = "2025-04-17 20:43:29 +0000";
layers = (
{
background = {
shapes = (
{
closed = 1;
nodes = (
(25,0,l),
(165,0,l),
(165,700,l),
(25,700,l)
);
},
{
closed = 1;
nodes = (
(145,263,l),
(250,0,l),
(390,0,l),
(285,263,l),
(390,525,l),
(250,525,l)
);
}
);
};
layerId = m01;
shapes = (
{
closed = 1;
nodes = (
(25,0,l),
(165,0,l),
(165,213,l),
(250,0,l),
(390,0,l),
(285,263,l),
(390,525,l),
(250,525,l),
(165,313,l),
(165,700,l),
(25,700,l)
);
}
);
width = 409;
}
);
metricLeft = "=h";
metricRight = "=h*.75";
unicode = 107;
},
{
glyphname = l;
kernLeft = h;
kernRight = l;
lastChange = "2025-04-18 20:03:40 +0000";
layers = (
{
layerId = m01;
shapes = (
{
closed = 1;
nodes = (
(165,700,l),
(25,700,l),
(25,0,l),
(165,0,l)
);
}
);
width = 190;
}
);
metricLeft = "=h";
metricRight = "=h";
unicode = 108;
},
{
glyphname = m;
kernLeft = n;
kernRight = n;
lastChange = "2025-04-18 20:03:40 +0000";
layers = (
{
background = {
hints = (
{
name = _corner.ROUND;
type = Corner;
},
{
name = _corner.ROUND;
options = 2;
scale = (-0.3,0.3);
type = Corner;
},
{
name = _corner.ROUND;
options = 2;
scale = (-0.3,0.3);
type = Corner;
},
{
name = _corner.ROUND;
type = Corner;
},
{
name = _corner.ROUND;
options = 2;
scale = (-0.3,0.3);
type = Corner;
},
{
name = _corner.ROUND;
options = 2;
scale = (-0.3,0.3);
type = Corner;
},
{
name = _corner.ROUND;
options = 2;
scale = (-0.3,0.3);
type = Corner;
},
{
name = _corner.ROUND;
options = 2;
scale = (-0.3,0.3);
type = Corner;
},
{
name = _corner.ROUND;
type = Corner;
},
{
name = _corner.ROUND;
scale = (0.3,0.3);
type = Corner;
},
{
name = _corner.ROUND;
options = 2;
scale = (-0.3,0.3);
type = Corner;
},
{
name = _corner.ROUND;
options = 2;
scale = (-0.3,0.3);
type = Corner;
},
{
name = _corner.ROUND;
options = 2;
scale = (-0.3,0.3);
type = Corner;
},
{
name = _corner.ROUND;
type = Corner;
},
{
name = _corner.ROUND;
scale = (0.3,0.3);
type = Corner;
},
{
name = _corner.ROUND;
options = 2;
scale = (-0.3,0.3);
type = Corner;
},
{
name = _segment.CUT;
options = 1;
scale = (-1,1);
type = Segment;
},
{
name = _corner.ROUND;
type = Corner;
},
{
name = _corner.ROUND;
options = 2;
scale = (-0.3,0.3);
type = Corner;
},
{
name = _corner.ROUND;
options = 2;
scale = (-0.3,0.3);
type = Corner;
},
{
name = _segment.CUT;
options = 1;
scale = (-1,1);
type = Segment;
},
{
name = _corner.ROUND;
type = Corner;
},
{
name = _corner.ROUND;
options = 2;
scale = (-0.3,0.3);
type = Corner;
},
{
name = _corner.ROUND;
options = 2;
scale = (-0.3,0.3);
type = Corner;
},
{
name = _corner.ROUND;
type = Corner;
},
{
name = _corner.ROUND;
options = 2;
scale = (-0.3,0.3);
type = Corner;
},
{
name = _corner.ROUND;
options = 2;
scale = (-0.3,0.3);
type = Corner;
},
{
name = _corner.ROUND;
options = 2;
scale = (-0.3,0.3);
type = Corner;
},
{
name = _corner.ROUND;
options = 2;
scale = (-0.3,0.3);
type = Corner;
},
{
name = _corner.ROUND;
type = Corner;
},
{
name = _segment.CUT;
options = 1;
scale = (-1,1);
type = Segment;
},
{
name = _corner.ROUND;
type = Corner;
},
{
name = _corner.ROUND;
options = 2;
scale = (-0.3,0.3);
type = Corner;
},
{
name = _corner.ROUND;
options = 2;
scale = (-0.3,0.3);
type = Corner;
},
{
name = _corner.ROUND;
options = 2;
scale = (-0.3,0.3);
type = Corner;
},
{
name = _corner.ROUND;
options = 2;
scale = (-0.3,0.3);
type = Corner;
},
{
name = _corner.ROUND;
type = Corner;
},
{
name = _corner.ROUND;
options = 2;
scale = (-0.3,0.3);
type = Corner;
},
{
name = _corner.ROUND;
options = 2;
scale = (-0.3,0.3);
type = Corner;
},
{
name = _corner.ROUND;
type = Corner;
},
{
name = _segment.CUT;
options = 1;
scale = (-1,1);
type = Segment;
},
{
name = _corner.ROUND;
scale = (0.3,0.3);
type = Corner;
},
{
name = _corner.ROUND;
scale = (0.3,0.3);
type = Corner;
},
{
name = _corner.ROUND;
type = Corner;
},
{
name = _corner.ROUND;
options = 2;
scale = (-0.3,0.3);
type = Corner;
},
{
name = _corner.ROUND;
options = 2;
scale = (-0.3,0.3);
type = Corner;
},
{
name = _corner.ROUND;
type = Corner;
},
{
name = _segment.CUT;
options = 1;
scale = (-1,1);
type = Segment;
},
{
name = _corner.ROUND;
scale = (0.3,0.3);
type = Corner;
},
{
name = _corner.ROUND;
scale = (0.3,0.3);
type = Corner;
},
{
name = _corner.ROUND;
type = Corner;
},
{
name = _corner.ROUND;
options = 2;
scale = (-0.3,0.3);
type = Corner;
},
{
name = _corner.ROUND;
options = 2;
scale = (-0.3,0.3);
type = Corner;
},
{
name = _corner.ROUND;
type = Corner;
},
{
name = _segment.CUT;
options = 1;
scale = (-1,1);
type = Segment;
},
{
name = _corner.ROUND;
scale = (0.3,0.3);
type = Corner;
},
{
name = _corner.ROUND;
scale = (0.3,0.3);
type = Corner;
},
{
name = _corner.ROUND;
type = Corner;
},
{
name = _corner.ROUND;
origin = (0,1);
scale = (0.3,0.3);
type = Corner;
},
{
name = _corner.ROUND;
origin = (0,2);
scale = (0.3,0.3);
type = Corner;
},
{
name = _corner.ROUND;
origin = (0,5);
type = Corner;
},
{
name = _segment.CUT;
options = 1;
origin = (0,7);
scale = (-1,1);
type = Segment;
},
{
name = _corner.ROUND;
origin = (1,1);
type = Corner;
},
{
name = _corner.ROUND;
options = 2;
origin = (1,8);
scale = (-0.3,0.3);
type = Corner;
},
{
name = _corner.ROUND;
options = 2;
origin = (1,9);
scale = (-0.3,0.3);
type = Corner;
}
);
shapes = (
{
closed = 1;
nodes = (
(165,0,l),
(165,430,l),
(250,430,l),
(250,0,l),
(390,0,l),
(390,530,l),
(250,530,l),
(165,530,l),
(25,530,l),
(25,0,l)
);
},
{
closed = 1;
nodes = (
(615,0,l),
(615,530,l),
(475,530,ls),
(420,530,o),
(380,493,o),
(355,461,c),
(355,373,l),
(390,373,l),
(390,430,l),
(475,430,l),
(475,0,l)
);
}
);
};
hints = (
{
name = _corner.ROUND;
origin = (1,1);
type = Corner;
},
{
name = _corner.ROUND;
options = 2;
origin = (1,8);
scale = (-0.3,0.3);
type = Corner;
},
{
name = _corner.ROUND;
options = 2;
origin = (1,9);
scale = (-0.3,0.3);
type = Corner;
},
{
name = _corner.ROUND;
origin = (0,1);
scale = (0.3,0.3);
type = Corner;
},
{
name = _corner.ROUND;
origin = (0,2);
scale = (0.3,0.3);
type = Corner;
},
{
name = _corner.ROUND;
origin = (0,5);
type = Corner;
},
{
name = _segment.CUT;
options = 1;
origin = (0,7);
scale = (-1,1);
type = Segment;
}
);
layerId = m01;
shapes = (
{
closed = 1;
nodes = (
(165,0,l),
(165,425,l),
(250,425,l),
(250,0,l),
(390,0,l),
(390,525,l),
(250,525,l),
(165,525,l),
(25,525,l),
(25,0,l)
);
},
{
closed = 1;
nodes = (
(615,0,l),
(615,525,l),
(475,525,ls),
(420,525,o),
(378,498,o),
(353,466,c),
(353,378,l),
(390,378,l),
(390,425,l),
(475,425,l),
(475,0,l)
);
}
);
width = 637;
}
);
metricLeft = "=h";
metricRight = "=o";
unicode = 109;
},
{
glyphname = n;
kernLeft = n;
kernRight = n;
lastChange = "2025-04-17 20:04:21 +0000";
layers = (
{
anchors = (
{
name = bottom;
pos = (206,0);
},
{
name = top;
pos = (206,525);
}
);
background = {
hints = (
{
name = _corner.ROUND;
type = Corner;
},
{
name = _corner.ROUND;
options = 2;
scale = (-0.3,0.3);
type = Corner;
},
{
name = _corner.ROUND;
options = 2;
scale = (-0.3,0.3);
type = Corner;
},
{
name = _corner.ROUND;
type = Corner;
},
{
name = _corner.ROUND;
options = 2;
scale = (-0.3,0.3);
type = Corner;
},
{
name = _corner.ROUND;
options = 2;
scale = (-0.3,0.3);
type = Corner;
},
{
name = _corner.ROUND;
type = Corner;
},
{
name = _corner.ROUND;
options = 2;
scale = (-0.3,0.3);
type = Corner;
},
{
name = _corner.ROUND;
options = 2;
scale = (-0.3,0.3);
type = Corner;
},
{
name = _corner.ROUND;
type = Corner;
},
{
name = _corner.ROUND;
options = 2;
scale = (-0.3,0.3);
type = Corner;
},
{
name = _corner.ROUND;
options = 2;
scale = (-0.3,0.3);
type = Corner;
},
{
name = _corner.ROUND;
type = Corner;
},
{
name = _corner.ROUND;
options = 2;
scale = (-0.3,0.3);
type = Corner;
},
{
name = _corner.ROUND;
options = 2;
scale = (-0.3,0.3);
type = Corner;
},
{
name = _segment.CUT;
options = 1;
scale = (-1,1);
type = Segment;
},
{
name = _corner.ROUND;
scale = (0.3,0.3);
type = Corner;
},
{
name = _corner.ROUND;
scale = (0.3,0.3);
type = Corner;
},
{
name = _corner.ROUND;
type = Corner;
},
{
name = _segment.CUT;
options = 1;
scale = (-1,1);
type = Segment;
},
{
name = _corner.ROUND;
scale = (0.3,0.3);
type = Corner;
},
{
name = _corner.ROUND;
scale = (0.3,0.3);
type = Corner;
},
{
name = _corner.ROUND;
type = Corner;
},
{
name = _corner.ROUND;
origin = (0,1);
scale = (0.3,0.3);
type = Corner;
},
{
name = _corner.ROUND;
origin = (0,2);
scale = (0.3,0.3);
type = Corner;
},
{
name = _corner.ROUND;
origin = (0,5);
type = Corner;
},
{
name = _segment.CUT;
options = 1;
origin = (0,7);
scale = (-1,1);
type = Segment;
}
);
shapes = (
{
closed = 1;
nodes = (
(165,0,l),
(165,425,l),
(250,425,l),
(250,0,l),
(390,0,l),
(390,525,l),
(250,525,l),
(165,525,l),
(25,525,l),
(25,0,l)
);
}
);
};
hints = (
{
name = _segment.CUT;
options = 1;
origin = (0,7);
scale = (-1,1);
type = Segment;
},
{
name = _corner.ROUND;
origin = (0,1);
scale = (0.3,0.3);
type = Corner;
},
{
name = _corner.ROUND;
origin = (0,2);
scale = (0.3,0.3);
type = Corner;
},
{
name = _corner.ROUND;
origin = (0,5);
type = Corner;
}
);
layerId = m01;
shapes = (
{
closed = 1;
nodes = (
(165,0,l),
(165,425,l),
(250,425,l),
(250,0,l),
(390,0,l),
(390,525,l),
(250,525,l),
(165,525,l),
(25,525,l),
(25,0,l)
);
}
);
width = 412;
}
);
metricLeft = "=h";
metricRight = "=o";
unicode = 110;
},
{
glyphname = o;
kernLeft = o;
kernRight = o;
lastChange = "2025-04-17 21:14:50 +0000";
layers = (
{
anchors = (
{
name = bottom;
pos = (205,0);
},
{
name = center;
pos = (205,263);
},
{
name = ogonek;
pos = (368,10);
},
{
name = top;
pos = (205,525);
},
{
name = topright;
pos = (389,525);
}
);
hints = (
{
name = _corner.ROUND;
origin = (0,3);
type = Corner;
},
{
name = _corner.ROUND;
options = 2;
origin = (1,2);
scale = (-0.3,0.3);
type = Corner;
},
{
name = _corner.ROUND;
options = 2;
origin = (1,3);
scale = (-0.3,0.3);
type = Corner;
},
{
name = _corner.ROUND;
origin = (0,2);
type = Corner;
},
{
name = _corner.ROUND;
origin = (0,0);
type = Corner;
},
{
name = _corner.ROUND;
origin = (0,1);
type = Corner;
},
{
name = _corner.ROUND;
origin = (1,1);
scale = (0.3,0.3);
type = Corner;
},
{
name = _corner.ROUND;
origin = (1,0);
scale = (0.3,0.3);
type = Corner;
}
);
layerId = m01;
shapes = (
{
closed = 1;
nodes = (
(22,525,l),
(22,0,l),
(387,0,l),
(387,525,l)
);
},
{
closed = 1;
nodes = (
(247,100,l),
(162,100,l),
(162,425,l),
(247,425,l)
);
}
);
width = 409;
}
);
unicode = 111;
},
{
glyphname = p;
kernLeft = p;
kernRight = o;
lastChange = "2025-04-18 19:22:27 +0000";
layers = (
{
hints = (
{
name = _segment.CUT;
origin = (0,3);
type = Segment;
},
{
name = _corner.ROUND;
origin = (0,4);
type = Corner;
},
{
name = _corner.ROUND;
origin = (0,5);
type = Corner;
},
{
name = _segment.CUT;
options = 1;
origin = (0,7);
scale = (-1,1);
type = Segment;
},
{
name = _corner.ROUND;
options = 2;
origin = (1,0);
scale = (-0.3,0.3);
type = Corner;
},
{
name = _corner.ROUND;
origin = (1,1);
scale = (0.3,0.3);
type = Corner;
},
{
name = _corner.ROUND;
origin = (1,2);
scale = (0.3,0.3);
type = Corner;
},
{
name = _corner.ROUND;
options = 2;
origin = (1,3);
scale = (-0.3,0.3);
type = Corner;
}
);
layerId = m01;
shapes = (
{
closed = 1;
nodes = (
(25,-175,l),
(165,-175,l),
(165,0,l),
(250,0,l),
(390,0,l),
(390,525,l),
(250,525,l),
(165,525,l),
(25,525,l)
);
},
{
closed = 1;
nodes = (
(250,425,l),
(250,100,l),
(165,100,l),
(165,425,l)
);
}
);
width = 412;
}
);
metricLeft = "=h";
metricRight = "=o";
unicode = 112;
},
{
glyphname = thorn;
kernLeft = h;
kernRight = o;
lastChange = "2025-04-17 20:04:21 +0000";
layers = (
{
hints = (
{
name = _corner.BASE;
type = Corner;
},
{
name = _corner.BASE;
scale = (1.08,1.08);
type = Corner;
},
{
name = _corner.BASE;
scale = (1.08,1.08);
type = Corner;
},
{
name = _corner.BASE;
type = Corner;
},
{
name = _corner.BASE;
scale = (0.3,0.3);
type = Corner;
},
{
name = _corner.BASE;
options = 2;
scale = (-0.3,0.3);
type = Corner;
},
{
name = _corner.BASE;
scale = (0.3,0.3);
type = Corner;
},
{
name = _corner.BASE;
options = 2;
scale = (-0.3,0.3);
type = Corner;
},
{
name = _corner.ROUND;
type = Corner;
},
{
name = _corner.ROUND;
type = Corner;
},
{
name = _corner.ROUND;
type = Corner;
},
{
name = _corner.ROUND;
type = Corner;
},
{
name = _corner.ROUND;
scale = (0.3,0.3);
type = Corner;
},
{
name = _corner.ROUND;
scale = (0.3,0.3);
type = Corner;
},
{
name = _corner.ROUND;
options = 2;
scale = (-0.3,0.3);
type = Corner;
},
{
name = _corner.ROUND;
options = 2;
scale = (-0.3,0.3);
type = Corner;
},
{
name = _corner.ROUND;
type = Corner;
},
{
name = _corner.ROUND;
type = Corner;
},
{
name = _corner.ROUND;
type = Corner;
},
{
name = _corner.ROUND;
type = Corner;
},
{
name = _corner.ROUND;
options = 2;
scale = (-0.3,0.3);
type = Corner;
},
{
name = _corner.ROUND;
scale = (0.3,0.3);
type = Corner;
},
{
name = _corner.ROUND;
scale = (0.3,0.3);
type = Corner;
},
{
name = _corner.ROUND;
options = 2;
scale = (-0.3,0.3);
type = Corner;
},
{
name = _segment.CUT;
type = Segment;
},
{
name = _corner.ROUND;
type = Corner;
},
{
name = _corner.ROUND;
type = Corner;
},
{
name = _corner.ROUND;
options = 2;
scale = (-0.3,0.3);
type = Corner;
},
{
name = _corner.ROUND;
scale = (0.3,0.3);
type = Corner;
},
{
name = _corner.ROUND;
scale = (0.3,0.3);
type = Corner;
},
{
name = _corner.ROUND;
options = 2;
scale = (-0.3,0.3);
type = Corner;
},
{
name = _segment.CUT;
origin = (0,2);
type = Segment;
},
{
name = _corner.ROUND;
origin = (0,3);
type = Corner;
},
{
name = _corner.ROUND;
origin = (0,4);
type = Corner;
},
{
name = _segment.CUT;
options = 1;
origin = (0,6);
scale = (-1,1);
type = Segment;
},
{
name = _corner.ROUND;
origin = (1,0);
scale = (0.3,0.3);
type = Corner;
},
{
name = _corner.ROUND;
origin = (1,1);
scale = (0.3,0.3);
type = Corner;
},
{
name = _corner.ROUND;
options = 2;
origin = (1,2);
scale = (-0.3,0.3);
type = Corner;
},
{
name = _corner.ROUND;
options = 2;
origin = (1,3);
scale = (-0.3,0.3);
type = Corner;
}
);
layerId = m01;
shapes = (
{
closed = 1;
nodes = (
(165,-175,l),
(165,0,l),
(250,0,l),
(390,0,l),
(390,525,l),
(250,525,l),
(165,525,l),
(165,700,l),
(25,700,l),
(25,-175,l)
);
},
{
closed = 1;
nodes = (
(165,425,l),
(250,425,l),
(250,100,l),
(165,100,l)
);
}
);
width = 412;
}
);
unicode = 254;
},
{
glyphname = q;
kernLeft = o;
kernRight = q;
lastChange = "2025-04-17 20:04:21 +0000";
layers = (
{
background = {
hints = (
{
name = _segment.CUT;
type = Segment;
},
{
name = _corner.ROUND;
type = Corner;
},
{
name = _corner.ROUND;
type = Corner;
},
{
name = _segment.CUT;
options = 1;
scale = (-1,1);
type = Segment;
},
{
name = _corner.ROUND;
scale = (0.3,0.3);
type = Corner;
},
{
name = _corner.ROUND;
scale = (0.3,0.3);
type = Corner;
},
{
name = _corner.ROUND;
options = 2;
scale = (-0.3,0.3);
type = Corner;
},
{
name = _corner.ROUND;
options = 2;
scale = (-0.3,0.3);
type = Corner;
},
{
name = _segment.CUT;
origin = (0,1);
type = Segment;
},
{
name = _corner.ROUND;
origin = (0,2);
type = Corner;
},
{
name = _corner.ROUND;
origin = (0,3);
type = Corner;
},
{
name = _segment.CUT;
options = 1;
origin = (0,5);
scale = (-1,1);
type = Segment;
},
{
name = _corner.ROUND;
origin = (1,0);
scale = (0.3,0.3);
type = Corner;
},
{
name = _corner.ROUND;
origin = (1,1);
scale = (0.3,0.3);
type = Corner;
},
{
name = _corner.ROUND;
options = 2;
origin = (1,2);
scale = (-0.3,0.3);
type = Corner;
},
{
name = _corner.ROUND;
options = 2;
origin = (1,3);
scale = (-0.3,0.3);
type = Corner;
}
);
shapes = (
{
closed = 1;
nodes = (
(247,525,l),
(162,525,l),
(22,525,l),
(22,0,l),
(162,0,l),
(247,0,l),
(247,-175,l),
(387,-175,l),
(387,525,l)
);
},
{
closed = 1;
nodes = (
(247,100,l),
(162,100,l),
(162,425,l),
(247,425,l)
);
}
);
};
hints = (
{
name = _segment.CUT;
origin = (0,1);
type = Segment;
},
{
name = _corner.ROUND;
origin = (0,2);
type = Corner;
},
{
name = _corner.ROUND;
origin = (0,3);
type = Corner;
},
{
name = _segment.CUT;
options = 1;
origin = (0,5);
scale = (-1,1);
type = Segment;
},
{
name = _corner.ROUND;
origin = (1,0);
scale = (0.3,0.3);
type = Corner;
},
{
name = _corner.ROUND;
origin = (1,1);
scale = (0.3,0.3);
type = Corner;
},
{
name = _corner.ROUND;
options = 2;
origin = (1,2);
scale = (-0.3,0.3);
type = Corner;
},
{
name = _corner.ROUND;
options = 2;
origin = (1,3);
scale = (-0.3,0.3);
type = Corner;
}
);
layerId = m01;
shapes = (
{
closed = 1;
nodes = (
(247,525,l),
(162,525,l),
(22,525,l),
(22,0,l),
(162,0,l),
(247,0,l),
(247,-175,l),
(387,-175,l),
(387,525,l)
);
},
{
closed = 1;
nodes = (
(247,100,l),
(162,100,l),
(162,425,l),
(247,425,l)
);
}
);
width = 412;
}
);
metricLeft = "=o";
metricRight = "=h";
unicode = 113;
},
{
glyphname = r;
kernLeft = n;
kernRight = r;
lastChange = "2025-04-18 19:20:21 +0000";
layers = (
{
hints = (
{
name = _corner.ROUND;
origin = (0,9);
type = Corner;
},
{
name = _corner.ROUND;
options = 2;
origin = (0,6);
scale = (-0.3,0.3);
type = Corner;
},
{
name = _corner.ROUND;
origin = (0,5);
scale = (0.3,0.3);
type = Corner;
},
{
name = _segment.CUT;
options = 1;
origin = (0,1);
scale = (-1,1);
type = Segment;
}
);
layerId = m01;
shapes = (
{
closed = 1;
nodes = (
(250,525,l),
(165,525,l),
(25,525,l),
(25,0,l),
(165,0,l),
(165,425,l),
(250,425,l),
(250,360,l),
(390,360,l),
(390,525,l)
);
}
);
width = 398;
}
);
metricLeft = "=h";
metricRight = "=h*.33";
unicode = 114;
},
{
glyphname = s;
kernLeft = s;
kernRight = s;
lastChange = "2025-04-18 19:23:01 +0000";
layers = (
{
background = {
hints = (
{
name = _corner.ROUND;
origin = (0,2);
scale = (0.3,0.3);
type = Corner;
},
{
name = _corner.ROUND;
options = 2;
origin = (0,3);
scale = (-0.3,0.3);
type = Corner;
},
{
name = _corner.ROUND;
origin = (0,6);
scale = (1.08,1.08);
type = Corner;
},
{
name = _corner.ROUND;
origin = (0,7);
scale = (1.08,1);
type = Corner;
},
{
name = _corner.ROUND;
options = 2;
origin = (0,12);
scale = (-0.3,0.3);
type = Corner;
},
{
name = _corner.ROUND;
origin = (0,13);
scale = (0.3,0.3);
type = Corner;
},
{
name = _corner.ROUND;
origin = (0,16);
type = Corner;
},
{
name = _corner.ROUND;
origin = (0,17);
type = Corner;
}
);
shapes = (
{
closed = 1;
nodes = (
(156,299,o),
(157,375,c),
(157,430,l),
(242,430,l),
(242,364,l),
(382,365,l),
(382,530,l),
(17,530,l),
(17,385,l),
(17,201,o),
(243,245,o),
(242,155,c),
(242,100,l),
(157,100,l),
(157,165,l),
(17,165,l),
(17,0,l),
(382,0,l),
(382,155,ls),
(382,335,o)
);
}
);
};
hints = (
{
name = _corner.ROUND;
origin = (0,2);
scale = (0.3,0.3);
type = Corner;
},
{
name = _corner.ROUND;
options = 2;
origin = (0,3);
scale = (-0.3,0.3);
type = Corner;
},
{
name = _corner.ROUND;
origin = (0,6);
type = Corner;
},
{
name = _corner.ROUND;
origin = (0,7);
type = Corner;
},
{
name = _corner.ROUND;
options = 2;
origin = (0,12);
scale = (-0.3,0.3);
type = Corner;
},
{
name = _corner.ROUND;
origin = (0,13);
scale = (0.3,0.3);
type = Corner;
},
{
name = _corner.ROUND;
origin = (0,16);
type = Corner;
},
{
name = _corner.ROUND;
origin = (0,17);
type = Corner;
}
);
layerId = m01;
shapes = (
{
closed = 1;
nodes = (
(157,280,o),
(157,370,c),
(157,425,l),
(242,425,l),
(242,360,l),
(382,360,l),
(382,525,l),
(17,525,l),
(17,380,l),
(17,200,o),
(242,245,o),
(242,155,c),
(242,100,l),
(157,100,l),
(157,165,l),
(17,165,l),
(17,0,l),
(382,0,l),
(382,145,ls),
(382,325,o)
);
}
);
width = 399;
}
);
metricLeft = "=o*.75";
metricRight = "=o*.75";
unicode = 115;
},
{
glyphname = germandbls;
kernLeft = n;
kernRight = germandbls;
lastChange = "2025-04-18 19:09:40 +0000";
layers = (
{
hints = (
{
name = _corner.ROUND;
origin = (0,12);
scale = (1.08,1.08);
type = Corner;
},
{
name = _corner.ROUND;
origin = (0,15);
scale = (0.75,0.75);
type = Corner;
},
{
name = _corner.ROUND;
origin = (0,5);
scale = (0.3,0.3);
type = Corner;
},
{
name = _corner.ROUND;
options = 2;
origin = (0,4);
scale = (-0.3,0.3);
type = Corner;
},
{
name = _corner.ROUND;
origin = (0,9);
scale = (0.3,0.3);
type = Corner;
},
{
name = _corner.ROUND;
options = 2;
origin = (0,8);
scale = (-0.3,0.3);
type = Corner;
},
{
name = _segment.DOUBLECUT;
origin = (0,14);
type = Segment;
}
);
layerId = m01;
shapes = (
{
closed = 1;
nodes = (
(25,625,l),
(25,0,l),
(165,0,l),
(165,525,l),
(315,525,l),
(315,400,l),
(245,400,l),
(245,300,l),
(315,300,l),
(315,105,l),
(215,105,l),
(215,0,l),
(455,0,l),
(455,253,l),
(455,447,l),
(455,625,l)
);
}
);
width = 477;
}
);
metricLeft = "=H";
metricRight = "=O";
unicode = 223;
},
{
glyphname = t;
kernLeft = t;
kernRight = t;
lastChange = "2025-04-18 19:22:51 +0000";
layers = (
{
background = {
hints = (
{
name = _corner.ROUND;
origin = (0,0);
type = Corner;
},
{
name = _corner.ROUND;
origin = (0,3);
scale = (0.3,0.3);
type = Corner;
}
);
shapes = (
{
closed = 1;
nodes = (
(83,0,l),
(293,0,l),
(293,100,l),
(223,100,l),
(223,700,l),
(83,700,l)
);
},
{
closed = 1;
nodes = (
(13,425,l),
(293,425,l),
(293,525,l),
(13,525,l)
);
}
);
};
hints = (
{
name = _corner.ROUND;
origin = (0,7);
scale = (0.3,0.3);
type = Corner;
},
{
name = _corner.ROUND;
origin = (0,4);
type = Corner;
}
);
layerId = m01;
shapes = (
{
closed = 1;
nodes = (
(83,525,l),
(13,525,l),
(13,425,l),
(83,425,l),
(83,0,l),
(293,0,l),
(293,100,l),
(223,100,l),
(223,425,l),
(293,425,l),
(293,525,l),
(223,525,l),
(223,700,l),
(83,700,l)
);
}
);
width = 306;
}
);
metricLeft = "=h*.5";
metricRight = "=h*.5";
unicode = 116;
},
{
glyphname = u;
kernLeft = u;
kernRight = u;
lastChange = "2025-04-18 19:11:43 +0000";
layers = (
{
anchors = (
{
name = bottom;
pos = (209,0);
},
{
name = ogonek;
pos = (374,10);
},
{
name = top;
pos = (209,525);
},
{
name = topright;
pos = (395,525);
}
);
background = {
hints = (
{
name = _corner.ROUND;
type = Corner;
},
{
name = _corner.ROUND;
options = 2;
scale = (-0.3,0.3);
type = Corner;
},
{
name = _corner.ROUND;
options = 2;
scale = (-0.3,0.3);
type = Corner;
},
{
name = _corner.ROUND;
type = Corner;
},
{
name = _corner.ROUND;
options = 2;
scale = (-0.3,0.3);
type = Corner;
},
{
name = _corner.ROUND;
options = 2;
scale = (-0.3,0.3);
type = Corner;
},
{
name = _segment.CUT;
options = 1;
origin = (0,1);
scale = (-1,1);
type = Segment;
},
{
name = _corner.ROUND;
options = 2;
origin = (0,5);
scale = (-0.3,0.3);
type = Corner;
},
{
name = _corner.ROUND;
options = 2;
origin = (0,6);
scale = (-0.3,0.3);
type = Corner;
},
{
name = _corner.ROUND;
origin = (0,9);
type = Corner;
}
);
shapes = (
{
closed = 1;
nodes = (
(167,0,l),
(250,0,l),
(390,0,l),
(390,530,l),
(250,530,l),
(250,100,l),
(165,100,l),
(165,530,l),
(25,530,l),
(25,0,l)
);
}
);
};
hints = (
{
name = _corner.ROUND;
origin = (0,9);
type = Corner;
},
{
name = _corner.ROUND;
options = 2;
origin = (0,5);
scale = (-0.3,0.3);
type = Corner;
},
{
name = _corner.ROUND;
options = 2;
origin = (0,6);
scale = (-0.3,0.3);
type = Corner;
},
{
name = _segment.CUT;
options = 1;
origin = (0,1);
scale = (-1,1);
type = Segment;
}
);
layerId = m01;
shapes = (
{
closed = 1;
nodes = (
(165,0,l),
(250,0,l),
(390,0,l),
(390,525,l),
(250,525,l),
(250,100,l),
(165,100,l),
(165,525,l),
(25,525,l),
(25,0,l)
);
}
);
width = 415;
}
);
metricLeft = "=h";
metricRight = "=h";
unicode = 117;
},
{
glyphname = v;
kernLeft = v;
kernRight = v;
lastChange = "2025-04-17 22:30:43 +0000";
layers = (
{
background = {
shapes = (
{
closed = 0;
nodes = (
(171,0,l),
(271,0,l)
);
}
);
};
layerId = m01;
shapes = (
{
closed = 1;
nodes = (
(6,525,l),
(121,0,l),
(221,0,l),
(146,525,l)
);
},
{
closed = 1;
nodes = (
(171,0,l),
(271,0,l),
(386,525,l),
(246,525,l)
);
}
);
width = 392;
}
);
metricLeft = "=h*.25";
metricRight = "=h*.25";
unicode = 118;
},
{
glyphname = w;
kernLeft = w;
kernRight = w;
lastChange = "2025-04-18 19:13:32 +0000";
layers = (
{
anchors = (
{
name = bottom;
pos = (311,0);
},
{
name = top;
pos = (311,525);
}
);
layerId = m01;
shapes = (
{
closed = 1;
nodes = (
(6,525,l),
(116,0,l),
(216,0,l),
(146,525,l)
);
},
{
closed = 1;
nodes = (
(166,0,l),
(266,0,l),
(336,525,l),
(246,525,l)
);
},
{
closed = 1;
nodes = (
(286,525,l),
(356,0,l),
(456,0,l),
(376,525,l)
);
},
{
closed = 1;
nodes = (
(406,0,l),
(506,0,l),
(616,525,l),
(476,525,l)
);
}
);
width = 622;
}
);
metricLeft = "=h*.25";
metricRight = "=h*.25";
unicode = 119;
},
{
glyphname = x;
kernLeft = x;
kernRight = x;
lastChange = "2025-04-17 22:07:17 +0000";
layers = (
{
background = {
shapes = (
{
closed = 1;
nodes = (
(119,263,l),
(6,0,l),
(146,0,l),
(189,130,l),
(231,0,l),
(371,0,l),
(259,263,l),
(371,525,l),
(231,525,l),
(189,395,l),
(146,525,l),
(6,525,l)
);
}
);
};
layerId = m01;
shapes = (
{
closed = 1;
nodes = (
(119,263,l),
(6,0,l),
(146,0,l),
(189,120,l),
(231,0,l),
(371,0,l),
(259,263,l),
(371,525,l),
(231,525,l),
(189,405,l),
(146,525,l),
(6,525,l)
);
}
);
width = 377;
}
);
metricLeft = "=h*.25";
metricRight = "=h*.25";
unicode = 120;
},
{
glyphname = y;
kernLeft = y;
kernRight = y;
lastChange = "2025-04-18 19:16:33 +0000";
layers = (
{
anchors = (
{
name = bottom;
pos = (200,0);
},
{
name = top;
pos = (200,525);
}
);
background = {
hints = (
{
name = _corner.ROUND;
origin = (0,7);
scale = (0.3,0.4);
type = Corner;
},
{
name = _corner.ROUND;
origin = (0,10);
scale = (1.15,0.8);
type = Corner;
}
);
shapes = (
{
closed = 1;
nodes = (
(278,0,l),
(393,525,l),
(253,525,l),
(203,177,l),
(153,525,l),
(13,525,l),
(128,0,l),
(144,-75,l),
(13,-75,l),
(13,-175,l),
(230,-175,l)
);
}
);
};
hints = (
{
name = _corner.ROUND;
origin = (0,7);
scale = (0.3,0.4);
type = Corner;
},
{
name = _corner.ROUND;
origin = (0,10);
scale = (1.15,0.8);
type = Corner;
}
);
layerId = m01;
shapes = (
{
closed = 1;
nodes = (
(278,0,l),
(393,525,l),
(253,525,l),
(203,147,l),
(153,525,l),
(13,525,l),
(128,0,l),
(144,-75,l),
(13,-75,l),
(13,-175,l),
(230,-175,l)
);
}
);
width = 399;
}
);
metricLeft = "=h*.5";
metricRight = "=h*.25";
unicode = 121;
},
{
glyphname = z;
kernLeft = z;
kernRight = z;
lastChange = "2025-04-18 19:18:04 +0000";
layers = (
{
layerId = m01;
shapes = (
{
closed = 1;
nodes = (
(19,425,l),
(194,425,l),
(19,100,l),
(19,0,l),
(334,0,l),
(334,100,l),
(159,100,l),
(334,425,l),
(334,525,l),
(19,525,l)
);
}
);
width = 359;
}
);
metricLeft = "=h*.75";
metricRight = "=h";
unicode = 122;
},
{
glyphname = zero;
kernLeft = zero;
kernRight = zero;
lastChange = "2025-04-18 19:43:28 +0000";
layers = (
{
hints = (
{
name = _corner.ROUND;
origin = (0,0);
type = Corner;
},
{
name = _corner.ROUND;
origin = (0,1);
type = Corner;
},
{
name = _corner.ROUND;
origin = (0,2);
type = Corner;
},
{
name = _corner.ROUND;
origin = (0,3);
type = Corner;
},
{
name = _corner.ROUND;
origin = (1,0);
scale = (0.3,0.3);
type = Corner;
},
{
name = _corner.ROUND;
origin = (1,1);
scale = (0.3,0.3);
type = Corner;
},
{
name = _corner.ROUND;
options = 2;
origin = (1,2);
scale = (-0.3,0.3);
type = Corner;
},
{
name = _corner.ROUND;
options = 2;
origin = (1,3);
scale = (-0.3,0.3);
type = Corner;
}
);
layerId = m01;
shapes = (
{
closed = 1;
nodes = (
(22,0,l),
(412,0,l),
(412,700,l),
(22,700,l)
);
},
{
closed = 1;
nodes = (
(262,110,l),
(172,110,l),
(172,590,l),
(262,590,l)
);
}
);
width = 434;
}
);
metricLeft = "=O";
metricRight = "=O";
unicode = 48;
},
{
glyphname = one;
kernLeft = one;
kernRight = one;
lastChange = "2025-04-18 19:45:47 +0000";
layers = (
{
layerId = m01;
shapes = (
{
closed = 1;
nodes = (
(282,700,l),
(132,700,l),
(132,0,l),
(282,0,l)
);
},
{
closed = 1;
nodes = (
(84,496,l),
(210,622,l),
(132,700,l),
(6,574,l)
);
}
);
width = 313;
}
);
metricLeft = "=O*0.25";
metricRight = "=H*1.25";
unicode = 49;
},
{
glyphname = two;
kernLeft = two;
kernRight = two;
lastChange = "2025-04-17 20:55:03 +0000";
layers = (
{
hints = (
{
name = _corner.ROUND;
origin = (0,15);
scale = (0.3,0.3);
type = Corner;
},
{
name = _corner.ROUND;
options = 2;
origin = (0,14);
scale = (-0.3,0.3);
type = Corner;
},
{
name = _corner.ROUND;
origin = (0,11);
scale = (1.08,1.08);
type = Corner;
},
{
name = _corner.ROUND;
origin = (0,10);
type = Corner;
}
);
layerId = m01;
shapes = (
{
closed = 1;
nodes = (
(262,349,o),
(22,321,o),
(22,130,c),
(22,0,l),
(412,0,l),
(412,130,l),
(172,130,l),
(172,251,o),
(412,272,o),
(412,425,c),
(412,700,l),
(22,700,l),
(22,445,l),
(172,445,l),
(172,590,l),
(262,590,l),
(262,445,l)
);
}
);
width = 434;
}
);
metricLeft = "=O";
metricRight = "=O";
unicode = 50;
},
{
glyphname = three;
kernLeft = three;
kernRight = three;
lastChange = "2025-04-17 20:55:03 +0000";
layers = (
{
background = {
hints = (
{
name = _corner.ROUND;
type = Corner;
},
{
name = _corner.ROUND;
scale = (1.08,1.08);
type = Corner;
},
{
name = _segment.DOUBLECUT;
type = Segment;
},
{
name = _corner.ROUND;
type = Corner;
},
{
name = _corner.ROUND;
type = Corner;
},
{
name = _corner.ROUND;
scale = (0.3,0.3);
type = Corner;
},
{
name = _corner.ROUND;
options = 2;
scale = (-0.3,0.3);
type = Corner;
},
{
name = _corner.ROUND;
scale = (0.3,0.3);
type = Corner;
},
{
name = _corner.ROUND;
options = 2;
scale = (-0.3,0.3);
type = Corner;
},
{
name = _corner.ROUND;
scale = (0.3,0.3);
type = Corner;
},
{
name = _corner.ROUND;
scale = (0.3,0.3);
type = Corner;
},
{
name = _corner.ROUND;
origin = (0,1);
type = Corner;
},
{
name = _corner.ROUND;
origin = (0,2);
scale = (1.08,1.08);
type = Corner;
},
{
name = _segment.DOUBLECUT;
origin = (0,4);
type = Segment;
},
{
name = _corner.ROUND;
origin = (0,5);
type = Corner;
},
{
name = _corner.ROUND;
origin = (0,6);
type = Corner;
},
{
name = _corner.ROUND;
origin = (0,9);
scale = (0.3,0.3);
type = Corner;
},
{
name = _corner.ROUND;
options = 2;
origin = (0,10);
scale = (-0.3,0.3);
type = Corner;
},
{
name = _corner.ROUND;
origin = (0,11);
scale = (0.3,0.3);
type = Corner;
},
{
name = _corner.ROUND;
options = 2;
origin = (0,14);
scale = (-0.3,0.3);
type = Corner;
},
{
name = _corner.ROUND;
origin = (0,15);
scale = (0.3,0.3);
type = Corner;
},
{
name = _corner.ROUND;
origin = (0,16);
scale = (0.3,0.3);
type = Corner;
}
);
shapes = (
{
closed = 1;
nodes = (
(22,200,l),
(22,0,l),
(412,0,l),
(412,275,l),
(412,425,l),
(412,700,l),
(22,700,l),
(22,500,l),
(172,500,l),
(172,590,l),
(262,590,l),
(262,405,l),
(157,405,l),
(157,295,l),
(262,295,l),
(262,110,l),
(172,110,l),
(172,200,l)
);
}
);
};
hints = (
{
name = _corner.ROUND;
origin = (0,11);
scale = (0.3,0.3);
type = Corner;
},
{
name = _corner.ROUND;
options = 2;
origin = (0,10);
scale = (-0.3,0.3);
type = Corner;
},
{
name = _corner.ROUND;
origin = (0,2);
scale = (1.08,1.08);
type = Corner;
},
{
name = _corner.ROUND;
origin = (0,15);
scale = (0.3,0.3);
type = Corner;
},
{
name = _corner.ROUND;
options = 2;
origin = (0,14);
scale = (-0.3,0.3);
type = Corner;
},
{
name = _corner.ROUND;
origin = (0,6);
type = Corner;
},
{
name = _corner.ROUND;
origin = (0,1);
type = Corner;
},
{
name = _corner.ROUND;
origin = (0,9);
scale = (0.3,0.3);
type = Corner;
},
{
name = _corner.ROUND;
origin = (0,16);
scale = (0.3,0.3);
type = Corner;
},
{
name = _segment.DOUBLECUT;
origin = (0,4);
type = Segment;
},
{
name = _corner.ROUND;
origin = (0,5);
type = Corner;
}
);
layerId = m01;
shapes = (
{
closed = 1;
nodes = (
(22,200,l),
(22,0,l),
(412,0,l),
(412,275,l),
(412,425,l),
(412,700,l),
(22,700,l),
(22,500,l),
(172,500,l),
(172,590,l),
(262,590,l),
(262,405,l),
(157,405,l),
(157,295,l),
(262,295,l),
(262,110,l),
(172,110,l),
(172,200,l)
);
}
);
width = 434;
}
);
metricLeft = "=O";
metricRight = "=O";
unicode = 51;
},
{
glyphname = four;
kernLeft = four;
kernRight = four;
lastChange = "2025-04-18 19:42:33 +0000";
layers = (
{
background = {
shapes = (
{
closed = 1;
nodes = (
(372,700,l),
(222,700,l),
(222,0,l),
(372,0,l)
);
},
{
closed = 1;
nodes = (
(22,163,l),
(412,163,l),
(412,273,l),
(22,273,l)
);
}
);
};
layerId = m01;
shapes = (
{
closed = 1;
nodes = (
(372,700,l),
(222,700,l),
(222,0,l),
(372,0,l)
);
},
{
closed = 1;
nodes = (
(22,162,l),
(412,162,l),
(412,272,l),
(143,272,l),
(322,654,l),
(222,700,l),
(22,272,l)
);
}
);
width = 434;
}
);
metricLeft = "=O";
metricRight = "=O";
unicode = 52;
},
{
glyphname = five;
kernLeft = five;
kernRight = five;
lastChange = "2025-04-18 19:43:37 +0000";
layers = (
{
background = {
hints = (
{
name = _corner.ROUND;
type = Corner;
},
{
name = _corner.ROUND;
type = Corner;
},
{
name = _segment.CUT;
options = 1;
scale = (-1,1);
type = Segment;
},
{
name = _corner.ROUND;
type = Corner;
},
{
name = _corner.ROUND;
scale = (0.3,0.3);
type = Corner;
},
{
name = _corner.ROUND;
scale = (0.3,0.3);
type = Corner;
},
{
name = _corner.ROUND;
options = 2;
scale = (-0.3,0.3);
type = Corner;
},
{
name = _corner.ROUND;
options = 2;
scale = (-0.3,0.3);
type = Corner;
},
{
name = _corner.ROUND;
type = Corner;
},
{
name = _corner.ROUND;
type = Corner;
},
{
name = _segment.CUT;
options = 1;
scale = (-1,1);
type = Segment;
},
{
name = _corner.ROUND;
type = Corner;
},
{
name = _corner.ROUND;
scale = (0.3,0.3);
type = Corner;
},
{
name = _corner.ROUND;
scale = (0.3,0.3);
type = Corner;
},
{
name = _corner.ROUND;
options = 2;
scale = (-0.3,0.3);
type = Corner;
},
{
name = _corner.ROUND;
options = 2;
scale = (-0.3,0.3);
type = Corner;
},
{
name = _corner.ROUND;
type = Corner;
},
{
name = _corner.ROUND;
type = Corner;
},
{
name = _segment.CUT;
options = 1;
scale = (-1,1);
type = Segment;
},
{
name = _corner.ROUND;
type = Corner;
},
{
name = _corner.ROUND;
scale = (0.3,0.3);
type = Corner;
},
{
name = _corner.ROUND;
scale = (0.3,0.3);
type = Corner;
},
{
name = _corner.ROUND;
options = 2;
scale = (-0.3,0.3);
type = Corner;
},
{
name = _corner.ROUND;
options = 2;
scale = (-0.3,0.3);
type = Corner;
},
{
name = _corner.ROUND;
type = Corner;
},
{
name = _corner.ROUND;
type = Corner;
},
{
name = _corner.ROUND;
type = Corner;
},
{
name = _segment.CUT;
options = 1;
scale = (-1,1);
type = Segment;
},
{
name = _corner.ROUND;
scale = (0.3,0.3);
type = Corner;
},
{
name = _corner.ROUND;
scale = (0.3,0.3);
type = Corner;
},
{
name = _corner.ROUND;
options = 2;
scale = (-0.3,0.3);
type = Corner;
},
{
name = _corner.ROUND;
options = 2;
scale = (-0.3,0.3);
type = Corner;
},
{
name = _corner.ROUND;
origin = (1,1);
type = Corner;
},
{
name = _corner.ROUND;
origin = (1,2);
type = Corner;
},
{
name = _corner.ROUND;
origin = (1,3);
type = Corner;
},
{
name = _segment.CUT;
options = 1;
origin = (1,5);
scale = (-1,1);
type = Segment;
},
{
name = _corner.ROUND;
origin = (1,12);
scale = (0.3,0.3);
type = Corner;
},
{
name = _corner.ROUND;
origin = (1,13);
scale = (0.3,0.3);
type = Corner;
},
{
name = _corner.ROUND;
options = 2;
origin = (1,14);
scale = (-0.3,0.3);
type = Corner;
},
{
name = _corner.ROUND;
options = 2;
origin = (1,15);
scale = (-0.3,0.3);
type = Corner;
}
);
shapes = (
{
closed = 0;
nodes = (
(22,200,l),
(172,200,l)
);
},
{
closed = 1;
nodes = (
(22,200,l),
(22,0,l),
(412,0,l),
(412,520,l),
(262,520,l),
(172,520,l),
(172,590,l),
(387,590,l),
(387,700,l),
(22,700,l),
(22,368,l),
(172,368,l),
(172,410,l),
(262,410,l),
(262,110,l),
(172,110,l),
(172,200,l)
);
}
);
};
hints = (
{
name = _corner.ROUND;
origin = (0,1);
type = Corner;
},
{
name = _corner.ROUND;
origin = (0,2);
type = Corner;
},
{
name = _corner.ROUND;
origin = (0,3);
type = Corner;
},
{
name = _segment.CUT;
options = 1;
origin = (0,5);
scale = (-1,1);
type = Segment;
},
{
name = _corner.ROUND;
origin = (0,12);
scale = (0.3,0.3);
type = Corner;
},
{
name = _corner.ROUND;
origin = (0,13);
scale = (0.3,0.3);
type = Corner;
},
{
name = _corner.ROUND;
options = 2;
origin = (0,14);
scale = (-0.3,0.3);
type = Corner;
},
{
name = _corner.ROUND;
options = 2;
origin = (0,15);
scale = (-0.3,0.3);
type = Corner;
}
);
layerId = m01;
shapes = (
{
closed = 1;
nodes = (
(22,200,l),
(22,0,l),
(412,0,l),
(412,510,l),
(262,510,l),
(172,510,l),
(172,590,l),
(387,590,l),
(387,700,l),
(22,700,l),
(22,358,l),
(172,358,l),
(172,400,l),
(262,400,l),
(262,110,l),
(172,110,l),
(172,200,l)
);
}
);
width = 434;
}
);
metricLeft = "=O";
metricRight = "=O";
unicode = 53;
},
{
glyphname = six;
kernLeft = six;
kernRight = six;
lastChange = "2025-04-17 20:55:03 +0000";
layers = (
{
background = {
hints = (
{
name = _corner.ROUND;
type = Corner;
},
{
name = _corner.ROUND;
type = Corner;
},
{
name = _segment.CUT;
options = 1;
scale = (-1,1);
type = Segment;
},
{
name = _corner.ROUND;
type = Corner;
},
{
name = _corner.ROUND;
scale = (0.3,0.3);
type = Corner;
},
{
name = _corner.ROUND;
scale = (0.3,0.3);
type = Corner;
},
{
name = _corner.ROUND;
options = 2;
scale = (-0.3,0.3);
type = Corner;
},
{
name = _corner.ROUND;
options = 2;
scale = (-0.3,0.3);
type = Corner;
},
{
name = _corner.ROUND;
scale = (0.3,0.3);
type = Corner;
},
{
name = _corner.ROUND;
scale = (0.3,0.3);
type = Corner;
},
{
name = _segment.CUT;
scale = (-1,-1);
type = Segment;
},
{
name = _corner.ROUND;
type = Corner;
},
{
name = _corner.ROUND;
type = Corner;
},
{
name = _corner.ROUND;
type = Corner;
},
{
name = _corner.ROUND;
type = Corner;
},
{
name = _corner.ROUND;
type = Corner;
},
{
name = _corner.ROUND;
options = 2;
scale = (-0.3,0.3);
type = Corner;
},
{
name = _corner.ROUND;
scale = (0.3,0.3);
type = Corner;
},
{
name = _corner.ROUND;
scale = (0.3,0.3);
type = Corner;
},
{
name = _corner.ROUND;
options = 2;
scale = (-0.3,0.3);
type = Corner;
},
{
name = _corner.ROUND;
scale = (0.3,0.3);
type = Corner;
},
{
name = _corner.ROUND;
scale = (0.3,0.3);
type = Corner;
},
{
name = _segment.CUT;
scale = (-1,-1);
type = Segment;
},
{
name = _corner.ROUND;
type = Corner;
},
{
name = _corner.ROUND;
type = Corner;
},
{
name = _corner.ROUND;
type = Corner;
},
{
name = _corner.ROUND;
type = Corner;
},
{
name = _corner.ROUND;
type = Corner;
},
{
name = _corner.ROUND;
options = 2;
scale = (-0.3,0.3);
type = Corner;
},
{
name = _corner.ROUND;
scale = (0.3,0.3);
type = Corner;
},
{
name = _corner.ROUND;
scale = (0.3,0.3);
type = Corner;
},
{
name = _corner.ROUND;
options = 2;
scale = (-0.3,0.3);
type = Corner;
},
{
name = _corner.ROUND;
origin = (0,0);
scale = (0.3,0.3);
type = Corner;
},
{
name = _corner.ROUND;
origin = (0,1);
scale = (0.3,0.3);
type = Corner;
},
{
name = _segment.CUT;
origin = (0,3);
scale = (-1,-1);
type = Segment;
},
{
name = _corner.ROUND;
origin = (0,4);
type = Corner;
},
{
name = _corner.ROUND;
origin = (0,5);
type = Corner;
},
{
name = _corner.ROUND;
origin = (0,6);
type = Corner;
},
{
name = _corner.ROUND;
origin = (0,7);
type = Corner;
},
{
name = _corner.ROUND;
origin = (0,8);
type = Corner;
},
{
name = _corner.ROUND;
options = 2;
origin = (1,0);
scale = (-0.3,0.3);
type = Corner;
},
{
name = _corner.ROUND;
origin = (1,1);
scale = (0.3,0.3);
type = Corner;
},
{
name = _corner.ROUND;
origin = (1,2);
scale = (0.3,0.3);
type = Corner;
},
{
name = _corner.ROUND;
options = 2;
origin = (1,3);
scale = (-0.3,0.3);
type = Corner;
}
);
shapes = (
{
closed = 1;
nodes = (
(262,590,l),
(172,590,l),
(172,515,l),
(262,515,l),
(412,515,l),
(412,0,l),
(22,0,l),
(22,700,l),
(412,700,l),
(412,548,l),
(262,548,l)
);
},
{
closed = 1;
nodes = (
(262,110,l),
(262,405,l),
(172,405,l),
(172,110,l)
);
}
);
};
hints = (
{
name = _corner.ROUND;
origin = (0,5);
type = Corner;
},
{
name = _corner.ROUND;
origin = (0,4);
type = Corner;
},
{
name = _corner.ROUND;
origin = (0,6);
type = Corner;
},
{
name = _corner.ROUND;
origin = (1,2);
scale = (0.3,0.3);
type = Corner;
},
{
name = _corner.ROUND;
origin = (1,1);
scale = (0.3,0.3);
type = Corner;
},
{
name = _corner.ROUND;
options = 2;
origin = (1,0);
scale = (-0.3,0.3);
type = Corner;
},
{
name = _corner.ROUND;
options = 2;
origin = (1,3);
scale = (-0.3,0.3);
type = Corner;
},
{
name = _corner.ROUND;
origin = (0,7);
type = Corner;
},
{
name = _corner.ROUND;
origin = (0,8);
type = Corner;
},
{
name = _corner.ROUND;
origin = (0,0);
scale = (0.3,0.3);
type = Corner;
},
{
name = _corner.ROUND;
origin = (0,1);
scale = (0.3,0.3);
type = Corner;
},
{
name = _segment.CUT;
origin = (0,3);
scale = (-1,-1);
type = Segment;
}
);
layerId = m01;
shapes = (
{
closed = 1;
nodes = (
(262,590,l),
(172,590,l),
(172,505,l),
(262,505,l),
(412,505,l),
(412,0,l),
(22,0,l),
(22,700,l),
(412,700,l),
(412,548,l),
(262,548,l)
);
},
{
closed = 1;
nodes = (
(262,110,l),
(262,395,l),
(172,395,l),
(172,110,l)
);
}
);
width = 434;
}
);
metricLeft = "=O";
metricRight = "=O";
unicode = 54;
},
{
glyphname = seven;
kernLeft = seven;
kernRight = seven;
lastChange = "2025-04-18 19:44:46 +0000";
layers = (
{
layerId = m01;
shapes = (
{
closed = 1;
nodes = (
(377,590,l),
(377,700,l),
(17,700,l),
(17,590,l),
(227,590,l),
(67,0,l),
(217,0,l)
);
}
);
width = 394;
}
);
metricLeft = "=O*.75";
metricRight = "=O*.75";
unicode = 55;
},
{
glyphname = eight;
kernLeft = eight;
kernRight = eight;
lastChange = "2025-04-17 20:55:03 +0000";
layers = (
{
hints = (
{
name = _corner.ROUND;
origin = (0,7);
type = Corner;
},
{
name = _corner.ROUND;
origin = (0,0);
type = Corner;
},
{
name = _segment.DOUBLECUT;
origin = (0,2);
type = Segment;
},
{
name = _corner.ROUND;
origin = (2,0);
scale = (0.3,0.3);
type = Corner;
},
{
name = _corner.ROUND;
options = 2;
origin = (2,1);
scale = (-0.3,0.3);
type = Corner;
},
{
name = _corner.ROUND;
origin = (2,2);
scale = (0.3,0.3);
type = Corner;
},
{
name = _corner.ROUND;
options = 2;
origin = (1,1);
scale = (-0.3,0.3);
type = Corner;
},
{
name = _corner.ROUND;
origin = (1,2);
scale = (0.3,0.3);
type = Corner;
},
{
name = _corner.ROUND;
origin = (1,3);
scale = (0.3,0.3);
type = Corner;
},
{
name = _corner.ROUND;
origin = (2,0);
scale = (0.3,0.3);
type = Corner;
},
{
name = _corner.ROUND;
origin = (2,3);
scale = (0.3,0.3);
type = Corner;
},
{
name = _corner.ROUND;
origin = (1,0);
scale = (0.3,0.3);
type = Corner;
},
{
name = _segment.DOUBLECUT;
origin = (0,6);
type = Segment;
},
{
name = _corner.ROUND;
origin = (0,4);
type = Corner;
},
{
name = _corner.ROUND;
origin = (0,3);
type = Corner;
}
);
layerId = m01;
shapes = (
{
closed = 1;
nodes = (
(412,0,l),
(412,255,l),
(412,445,l),
(412,700,l),
(22,700,l),
(22,445,l),
(22,255,l),
(22,0,l)
);
},
{
closed = 1;
nodes = (
(172,295,l),
(262,295,l),
(262,110,l),
(172,110,l)
);
},
{
closed = 1;
nodes = (
(172,590,l),
(262,590,l),
(262,405,l),
(172,405,l)
);
}
);
width = 434;
}
);
metricLeft = "=O";
metricRight = "=O";
unicode = 56;
},
{
glyphname = nine;
kernLeft = nine;
kernRight = nine;
lastChange = "2025-04-17 20:55:03 +0000";
layers = (
{
background = {
hints = (
{
name = _corner.ROUND;
origin = (0,0);
scale = (0.3,0.3);
type = Corner;
},
{
name = _corner.ROUND;
origin = (0,1);
scale = (0.3,0.3);
type = Corner;
},
{
name = _segment.CUT;
origin = (0,3);
scale = (-1,-1);
type = Segment;
},
{
name = _corner.ROUND;
origin = (0,4);
type = Corner;
},
{
name = _corner.ROUND;
origin = (0,5);
type = Corner;
},
{
name = _corner.ROUND;
origin = (0,6);
type = Corner;
},
{
name = _corner.ROUND;
origin = (0,7);
type = Corner;
},
{
name = _corner.ROUND;
origin = (0,8);
type = Corner;
},
{
name = _corner.ROUND;
options = 2;
origin = (1,0);
scale = (-0.3,0.3);
type = Corner;
},
{
name = _corner.ROUND;
origin = (1,1);
scale = (0.3,0.3);
type = Corner;
},
{
name = _corner.ROUND;
origin = (1,2);
scale = (0.3,0.3);
type = Corner;
},
{
name = _corner.ROUND;
options = 2;
origin = (1,3);
scale = (-0.3,0.3);
type = Corner;
}
);
shapes = (
{
closed = 1;
nodes = (
(172,110,l),
(262,110,l),
(262,185,l),
(163,185,l),
(22,185,l),
(22,700,l),
(412,700,l),
(412,0,l),
(22,0,l),
(22,152,l),
(172,152,l)
);
},
{
closed = 1;
nodes = (
(172,590,l),
(172,295,l),
(262,295,l),
(262,590,l)
);
}
);
};
hints = (
{
name = _corner.ROUND;
origin = (0,0);
scale = (0.3,0.3);
type = Corner;
},
{
name = _corner.ROUND;
origin = (0,1);
scale = (0.3,0.3);
type = Corner;
},
{
name = _segment.CUT;
origin = (0,3);
scale = (-1,-1);
type = Segment;
},
{
name = _corner.ROUND;
origin = (0,4);
type = Corner;
},
{
name = _corner.ROUND;
origin = (0,5);
type = Corner;
},
{
name = _corner.ROUND;
origin = (0,6);
type = Corner;
},
{
name = _corner.ROUND;
origin = (0,7);
type = Corner;
},
{
name = _corner.ROUND;
origin = (0,8);
type = Corner;
},
{
name = _corner.ROUND;
options = 2;
origin = (1,0);
scale = (-0.3,0.3);
type = Corner;
},
{
name = _corner.ROUND;
origin = (1,1);
scale = (0.3,0.3);
type = Corner;
},
{
name = _corner.ROUND;
origin = (1,2);
scale = (0.3,0.3);
type = Corner;
},
{
name = _corner.ROUND;
options = 2;
origin = (1,3);
scale = (-0.3,0.3);
type = Corner;
}
);
layerId = m01;
shapes = (
{
closed = 1;
nodes = (
(172,110,l),
(262,110,l),
(262,195,l),
(163,195,l),
(22,195,l),
(22,700,l),
(412,700,l),
(412,0,l),
(22,0,l),
(22,152,l),
(172,152,l)
);
},
{
closed = 1;
nodes = (
(172,590,l),
(172,305,l),
(262,305,l),
(262,590,l)
);
}
);
width = 434;
}
);
metricLeft = "=O";
metricRight = "=O";
unicode = 57;
},
{
glyphname = zero.001;
kernLeft = zero;
kernRight = zero;
lastChange = "2025-04-17 20:55:03 +0000";
layers = (
{
hints = (
{
name = _corner.ROUND;
origin = (0,0);
type = Corner;
},
{
name = _corner.ROUND;
origin = (0,1);
type = Corner;
},
{
name = _corner.ROUND;
origin = (0,2);
type = Corner;
},
{
name = _corner.ROUND;
origin = (0,3);
type = Corner;
},
{
name = _corner.ROUND;
origin = (1,0);
scale = (0.3,0.3);
type = Corner;
},
{
name = _corner.ROUND;
origin = (1,1);
scale = (0.3,0.3);
type = Corner;
},
{
name = _corner.ROUND;
options = 2;
origin = (1,2);
scale = (-0.3,0.3);
type = Corner;
},
{
name = _corner.ROUND;
options = 2;
origin = (1,3);
scale = (-0.3,0.3);
type = Corner;
}
);
layerId = m01;
shapes = (
{
closed = 1;
nodes = (
(22,0,l),
(412,0,l),
(412,700,l),
(22,700,l)
);
},
{
closed = 1;
nodes = (
(262,110,l),
(172,110,l),
(172,590,l),
(262,590,l)
);
}
);
width = 434;
}
);
metricLeft = "=O";
metricRight = "=O";
},
{
glyphname = eight.001;
kernLeft = eight;
kernRight = eight;
lastChange = "2025-04-17 20:55:03 +0000";
layers = (
{
hints = (
{
name = _corner.ROUND;
origin = (0,7);
type = Corner;
},
{
name = _corner.ROUND;
origin = (0,0);
type = Corner;
},
{
name = _segment.DOUBLECUT;
origin = (0,2);
type = Segment;
},
{
name = _corner.ROUND;
origin = (2,0);
scale = (0.3,0.3);
type = Corner;
},
{
name = _corner.ROUND;
options = 2;
origin = (2,1);
scale = (-0.3,0.3);
type = Corner;
},
{
name = _corner.ROUND;
origin = (2,2);
scale = (0.3,0.3);
type = Corner;
},
{
name = _corner.ROUND;
options = 2;
origin = (1,1);
scale = (-0.3,0.3);
type = Corner;
},
{
name = _corner.ROUND;
origin = (1,2);
scale = (0.3,0.3);
type = Corner;
},
{
name = _corner.ROUND;
origin = (1,3);
scale = (0.3,0.3);
type = Corner;
},
{
name = _corner.ROUND;
origin = (2,0);
scale = (0.3,0.3);
type = Corner;
},
{
name = _corner.ROUND;
origin = (2,3);
scale = (0.3,0.3);
type = Corner;
},
{
name = _corner.ROUND;
origin = (1,0);
scale = (0.3,0.3);
type = Corner;
},
{
name = _segment.DOUBLECUT;
origin = (0,6);
type = Segment;
},
{
name = _corner.ROUND;
origin = (0,4);
type = Corner;
},
{
name = _corner.ROUND;
origin = (0,3);
type = Corner;
}
);
layerId = m01;
shapes = (
{
closed = 1;
nodes = (
(412,0,l),
(412,255,l),
(412,445,l),
(412,700,l),
(22,700,l),
(22,445,l),
(22,255,l),
(22,0,l)
);
},
{
closed = 1;
nodes = (
(172,295,l),
(262,295,l),
(262,110,l),
(172,110,l)
);
},
{
closed = 1;
nodes = (
(172,590,l),
(262,590,l),
(262,405,l),
(172,405,l)
);
}
);
width = 434;
}
);
metricLeft = "=O";
metricRight = "=O";
},
{
glyphname = .notdef;
lastChange = "2025-04-17 15:33:44 +0000";
layers = (
{
hints = (
{
name = _corner.ROUND;
origin = (0,0);
scale = (0.3,0.3);
type = Corner;
},
{
name = _corner.ROUND;
origin = (0,1);
scale = (0.3,0.3);
type = Corner;
},
{
name = _corner.ROUND;
origin = (0,2);
scale = (0.3,0.3);
type = Corner;
},
{
name = _corner.ROUND;
origin = (0,3);
scale = (0.3,0.3);
type = Corner;
}
);
layerId = m01;
shapes = (
{
closed = 1;
nodes = (
(25,225,l),
(325,225,l),
(325,525,l),
(25,525,l)
);
}
);
width = 350;
}
);
metricLeft = "=H";
metricRight = "=H";
},
{
glyphname = period;
kernLeft = period;
kernRight = period;
lastChange = "2025-04-18 20:00:59 +0000";
layers = (
{
layerId = m01;
shapes = (
{
closed = 1;
nodes = (
(181,150,l),
(31,150,l),
(31,0,l),
(181,0,l)
);
}
);
width = 212;
}
);
metricLeft = "=h*1.25";
metricRight = "=h*1.25";
unicode = 46;
},
{
glyphname = comma;
kernLeft = period;
kernRight = period;
lastChange = "2025-04-18 20:00:47 +0000";
layers = (
{
background = {
hints = (
{
name = _corner.ROUND;
origin = (0,1);
scale = (0.3,0.3);
type = Corner;
},
{
name = _corner.ROUND;
origin = (0,4);
type = Corner;
}
);
shapes = (
{
closed = 1;
nodes = (
(31,50,l),
(31,-40,l),
(-39,-40,l),
(-39,-150,l),
(141,-150,l),
(141,50,l)
);
},
{
closed = 1;
nodes = (
(141,110,l),
(31,110,l),
(31,0,l),
(141,0,l)
);
}
);
};
hints = (
{
name = _corner.ROUND;
origin = (0,3);
scale = (0.3,0.3);
type = Corner;
},
{
name = _corner.ROUND;
origin = (0,6);
scale = (0.7,0.7);
type = Corner;
}
);
layerId = m01;
shapes = (
{
closed = 1;
nodes = (
(31,150,l),
(31,0,l),
(110,0,l),
(110,-55,l),
(51,-55,l),
(51,-110,l),
(181,-110,l),
(181,150,l)
);
}
);
width = 212;
}
);
metricLeft = "=h*1.25";
metricRight = "=h*1.25";
unicode = 44;
},
{
glyphname = exclam;
kernLeft = exclam;
kernRight = exclam;
lastChange = "2025-04-18 19:31:10 +0000";
layers = (
{
layerId = m01;
shapes = (
{
closed = 1;
nodes = (
(36,700,l),
(36,200,l),
(176,200,l),
(176,700,l)
);
},
{
closed = 1;
nodes = (
(31,150,l),
(31,0,l),
(181,0,l),
(181,150,l)
);
}
);
width = 212;
}
);
metricLeft = "=h*1.25";
metricRight = "=h*1.25";
unicode = 33;
},
{
glyphname = question;
kernLeft = question;
kernRight = question;
lastChange = "2025-04-17 20:55:13 +0000";
layers = (
{
guides = (
{
angle = 90;
pos = (217,75);
}
);
hints = (
{
name = _corner.ROUND;
origin = (0,7);
type = Corner;
},
{
name = _corner.ROUND;
origin = (0,8);
scale = (1.08,1.08);
type = Corner;
},
{
name = _corner.ROUND;
options = 2;
origin = (0,11);
scale = (-0.3,0.3);
type = Corner;
},
{
name = _corner.ROUND;
origin = (0,12);
scale = (0.3,0.3);
type = Corner;
}
);
layerId = m01;
shapes = (
{
closed = 1;
nodes = (
(262,379,o),
(147,391,o),
(147,200,c),
(287,200,l),
(287,351,o),
(412,339,o),
(412,505,c),
(412,700,l),
(22,700,l),
(22,505,l),
(172,505,l),
(172,590,l),
(262,590,l),
(262,505,l)
);
},
{
closed = 1;
nodes = (
(292,150,l),
(142,150,l),
(142,0,l),
(292,0,l)
);
}
);
width = 434;
}
);
metricLeft = "=O";
metricRight = "=O";
unicode = 63;
},
{
glyphname = bullet;
kernLeft = bullet;
kernRight = bullet;
lastChange = "2025-04-17 20:04:21 +0000";
layers = (
{
hints = (
{
name = _corner.ROUND;
origin = (0,3);
scale = (0.3,0.3);
type = Corner;
},
{
name = _corner.ROUND;
origin = (0,0);
scale = (0.3,0.3);
type = Corner;
},
{
name = _corner.ROUND;
origin = (0,1);
scale = (0.3,0.3);
type = Corner;
},
{
name = _corner.ROUND;
origin = (0,2);
scale = (0.3,0.3);
type = Corner;
}
);
layerId = m01;
shapes = (
{
closed = 1;
nodes = (
(25,287,l),
(175,287,l),
(175,437,l),
(25,437,l)
);
}
);
width = 200;
}
);
metricLeft = "=h";
metricRight = "=h";
unicode = 8226;
},
{
glyphname = asterisk;
kernLeft = asterisk;
kernRight = asterisk;
lastChange = "2025-04-17 20:04:21 +0000";
layers = (
{
layerId = m01;
shapes = (
{
closed = 1;
nodes = (
(164,700,l),
(164,335,l),
(241,335,l),
(241,700,l)
);
},
{
closed = 1;
nodes = (
(341,642,l),
(25,460,l),
(63,394,l),
(380,576,l)
);
},
{
closed = 1;
nodes = (
(26,575,l),
(342,393,l),
(380,459,l),
(64,642,l)
);
}
);
width = 405;
}
);
metricLeft = "=h";
metricRight = "=h";
unicode = 42;
},
{
glyphname = numbersign;
kernLeft = numbersign;
kernRight = numbersign;
lastChange = "2025-04-17 20:04:21 +0000";
layers = (
{
layerId = m01;
shapes = (
{
closed = 1;
nodes = (
(285,700,l),
(115,0,l),
(225,0,l),
(395,700,l)
);
},
{
closed = 1;
nodes = (
(485,700,l),
(309,0,l),
(419,0,l),
(595,700,l)
);
},
{
closed = 1;
nodes = (
(665,505,l),
(105,505,l),
(75,395,l),
(635,395,l)
);
},
{
closed = 1;
nodes = (
(615,305,l),
(55,305,l),
(25,195,l),
(585,195,l)
);
}
);
width = 690;
}
);
metricLeft = "=H";
metricRight = "=H";
unicode = 35;
},
{
glyphname = slash;
kernLeft = slash;
kernRight = slash;
lastChange = "2025-04-18 19:40:19 +0000";
layers = (
{
layerId = m01;
shapes = (
{
closed = 1;
nodes = (
(122,-27,l),
(322,720,l),
(222,720,l),
(22,-27,l)
);
}
);
width = 344;
}
);
metricLeft = "=o";
metricRight = "=o";
unicode = 47;
},
{
glyphname = hyphen;
kernLeft = hyphen;
kernRight = hyphen;
lastChange = "2025-04-18 19:38:39 +0000";
layers = (
{
layerId = m01;
shapes = (
{
closed = 1;
nodes = (
(331,300,l),
(31,300,l),
(31,200,l),
(331,200,l)
);
}
);
width = 362;
}
);
metricLeft = "=h*1.25";
metricRight = "=h*1.25";
unicode = 45;
},
{
glyphname = endash;
kernLeft = hyphen;
kernRight = hyphen;
lastChange = "2025-04-18 19:38:01 +0000";
layers = (
{
layerId = m01;
shapes = (
{
closed = 1;
nodes = (
(486,300,l),
(31,300,l),
(31,200,l),
(486,200,l)
);
}
);
width = 517;
}
);
metricLeft = "=h*1.25";
metricRight = "=h*1.25";
unicode = 8211;
},
{
glyphname = emdash;
kernLeft = hyphen;
kernRight = hyphen;
lastChange = "2025-04-18 19:38:01 +0000";
layers = (
{
layerId = m01;
shapes = (
{
closed = 1;
nodes = (
(591,300,l),
(31,300,l),
(31,200,l),
(591,200,l)
);
}
);
width = 622;
}
);
metricLeft = "=h*1.25";
metricRight = "=h*1.25";
unicode = 8212;
},
{
glyphname = underscore;
kernLeft = underscore;
kernRight = underscore;
lastChange = "2025-04-18 19:38:01 +0000";
layers = (
{
layerId = m01;
shapes = (
{
closed = 1;
nodes = (
(486,-40,l),
(31,-40,l),
(31,-140,l),
(486,-140,l)
);
}
);
width = 517;
}
);
metricLeft = "=h*1.25";
metricRight = "=h*1.25";
unicode = 95;
},
{
glyphname = parenleft;
kernLeft = parenleft;
kernRight = parenleft;
lastChange = "2025-04-17 20:04:21 +0000";
layers = (
{
background = {
hints = (
{
name = _corner.ROUND;
origin = (0,0);
type = Corner;
},
{
name = _corner.ROUND;
origin = (0,3);
type = Corner;
},
{
name = _corner.ROUND;
origin = (1,1);
scale = (0.3,0.3);
type = Corner;
},
{
name = _corner.ROUND;
options = 2;
origin = (1,2);
scale = (-0.3,0.3);
type = Corner;
}
);
shapes = (
{
closed = 1;
nodes = (
(25,-175,l),
(175,-175,l),
(175,700,l),
(25,700,l)
);
},
{
closed = 1;
nodes = (
(175,-120,l),
(135,-120,l),
(135,645,l),
(175,645,l)
);
}
);
};
hints = (
{
name = _corner.ROUND;
origin = (0,3);
scale = (0.3,0.3);
type = Corner;
},
{
name = _corner.ROUND;
options = 2;
origin = (0,4);
scale = (-0.3,0.3);
type = Corner;
},
{
name = _corner.ROUND;
origin = (0,7);
type = Corner;
},
{
name = _corner.ROUND;
origin = (0,0);
type = Corner;
}
);
layerId = m01;
shapes = (
{
closed = 1;
nodes = (
(25,-175,l),
(175,-175,l),
(175,-120,l),
(135,-120,l),
(135,645,l),
(175,645,l),
(175,700,l),
(25,700,l)
);
}
);
width = 202;
}
);
metricLeft = "=H";
metricRight = "=H";
unicode = 40;
},
{
glyphname = parenright;
kernLeft = parenright;
kernRight = parenright;
lastChange = "2025-04-17 20:04:21 +0000";
layers = (
{
hints = (
{
name = _corner.ROUND;
origin = (0,6);
type = Corner;
},
{
name = _corner.ROUND;
origin = (0,3);
scale = (0.3,0.3);
type = Corner;
},
{
name = _corner.ROUND;
options = 2;
origin = (0,2);
scale = (-0.3,0.3);
type = Corner;
},
{
name = _corner.ROUND;
origin = (0,7);
type = Corner;
}
);
layerId = m01;
shapes = (
{
closed = 1;
nodes = (
(27,700,l),
(27,645,l),
(67,645,l),
(67,-120,l),
(27,-120,l),
(27,-175,l),
(177,-175,l),
(177,700,l)
);
}
);
width = 202;
}
);
metricLeft = "=H";
metricRight = "=H";
unicode = 41;
},
{
glyphname = braceleft;
kernLeft = braceleft;
kernRight = braceleft;
lastChange = "2025-04-17 20:04:21 +0000";
layers = (
{
hints = (
{
name = _corner.ROUND;
origin = (0,2);
type = Corner;
},
{
name = _corner.ROUND;
origin = (0,5);
scale = (0.3,0.3);
type = Corner;
},
{
name = _corner.ROUND;
options = 2;
origin = (0,8);
scale = (-0.3,0.3);
type = Corner;
},
{
name = _corner.ROUND;
origin = (0,11);
type = Corner;
},
{
name = _segment.DOUBLECUT;
origin = (0,1);
scale = (1,-1);
type = Segment;
},
{
name = _segment.DOUBLECUT;
origin = (0,7);
type = Segment;
}
);
layerId = m01;
shapes = (
{
closed = 1;
nodes = (
(91,425,l),
(91,100,l),
(91,-175,l),
(241,-175,l),
(241,-120,l),
(201,-120,l),
(201,170,l),
(201,355,l),
(201,645,l),
(241,645,l),
(241,700,l),
(91,700,l)
);
}
);
width = 268;
}
);
metricLeft = "=H";
metricRight = "=H";
unicode = 123;
},
{
glyphname = braceright;
kernLeft = braceright;
kernRight = braceright;
lastChange = "2025-04-17 20:04:21 +0000";
layers = (
{
hints = (
{
name = _corner.ROUND;
origin = (0,8);
type = Corner;
},
{
name = _corner.ROUND;
origin = (0,5);
scale = (0.3,0.3);
type = Corner;
},
{
name = _corner.ROUND;
options = 2;
origin = (0,2);
scale = (-0.3,0.3);
type = Corner;
},
{
name = _corner.ROUND;
origin = (0,11);
type = Corner;
},
{
name = _segment.DOUBLECUT;
options = 1;
origin = (0,10);
scale = (1,-1);
type = Segment;
},
{
name = _segment.DOUBLECUT;
origin = (0,4);
type = Segment;
}
);
layerId = m01;
shapes = (
{
closed = 1;
nodes = (
(27,700,l),
(27,645,l),
(67,645,l),
(67,355,l),
(67,170,l),
(67,-120,l),
(27,-120,l),
(27,-175,l),
(177,-175,l),
(177,100,l),
(177,425,l),
(177,700,l)
);
}
);
width = 268;
}
);
metricLeft = "=H";
metricRight = "=H";
unicode = 125;
},
{
glyphname = bracketleft;
kernLeft = bracketleft;
kernRight = bracketleft;
lastChange = "2025-04-17 20:04:21 +0000";
layers = (
{
layerId = m01;
shapes = (
{
closed = 1;
nodes = (
(25,-175,l),
(175,-175,l),
(175,-120,l),
(135,-120,l),
(135,645,l),
(175,645,l),
(175,700,l),
(25,700,l)
);
}
);
width = 200;
}
);
metricLeft = "=H";
metricRight = "=H";
unicode = 91;
},
{
glyphname = bracketright;
kernLeft = bracketright;
kernRight = bracketright;
lastChange = "2025-04-17 20:04:21 +0000";
layers = (
{
layerId = m01;
shapes = (
{
closed = 1;
nodes = (
(25,700,l),
(25,645,l),
(65,645,l),
(65,-120,l),
(25,-120,l),
(25,-175,l),
(175,-175,l),
(175,700,l)
);
}
);
width = 200;
}
);
metricLeft = "=H";
metricRight = "=H";
unicode = 93;
},
{
glyphname = guilsinglleft;
kernLeft = guillemetleft;
kernRight = guillemetleft;
lastChange = "2025-04-17 20:04:21 +0000";
layers = (
{
layerId = m01;
shapes = (
{
closed = 1;
nodes = (
(22,295,l),
(152,415,l),
(152,525,l),
(22,405,l)
);
},
{
closed = 1;
nodes = (
(152,175,l),
(152,285,l),
(22,405,l),
(22,295,l)
);
}
);
width = 174;
}
);
metricLeft = "=o";
metricRight = "=o";
unicode = 8249;
},
{
glyphname = quotesingle;
kernLeft = quotesingle;
kernRight = quotesingle;
lastChange = "2025-04-17 20:04:21 +0000";
layers = (
{
layerId = m01;
shapes = (
{
closed = 1;
nodes = (
(22,480,l),
(112,480,l),
(112,700,l),
(22,700,l)
);
}
);
width = 134;
}
);
metricLeft = "=o";
metricRight = "=o";
unicode = 39;
},
{
glyphname = dollar;
kernLeft = dollar;
kernRight = dollar;
lastChange = "2025-04-17 20:55:20 +0000";
layers = (
{
layerId = m01;
shapes = (
{
ref = S;
},
{
closed = 1;
nodes = (
(165,700,l),
(275,700,l),
(275,780,l),
(165,780,l)
);
},
{
closed = 1;
nodes = (
(165,-80,l),
(275,-80,l),
(275,0,l),
(165,0,l)
);
}
);
width = 444;
}
);
metricLeft = "=O";
metricRight = "=O";
unicode = 36;
},
{
glyphname = euro;
kernLeft = euro;
kernRight = euro;
lastChange = "2025-04-17 20:55:20 +0000";
layers = (
{
hints = (
{
name = _corner.ROUND;
origin = (0,0);
type = Corner;
},
{
name = _corner.ROUND;
origin = (0,1);
scale = (1.08,1.08);
type = Corner;
},
{
name = _corner.ROUND;
origin = (0,10);
scale = (1.08,1.08);
type = Corner;
},
{
name = _corner.ROUND;
origin = (0,11);
type = Corner;
},
{
name = _corner.ROUND;
origin = (0,4);
scale = (0.3,0.3);
type = Corner;
},
{
name = _corner.ROUND;
options = 2;
origin = (0,5);
scale = (-0.3,0.3);
type = Corner;
},
{
name = _corner.ROUND;
origin = (0,6);
scale = (0.3,0.3);
type = Corner;
},
{
name = _corner.ROUND;
options = 2;
origin = (0,7);
scale = (-0.3,0.3);
type = Corner;
}
);
layerId = m01;
shapes = (
{
closed = 1;
nodes = (
(47,0,l),
(447,0,l),
(447,185,l),
(297,185,l),
(297,110,l),
(197,110,l),
(197,590,l),
(297,590,l),
(297,515,l),
(447,515,l),
(447,700,l),
(47,700,l)
);
},
{
pos = (-28,0);
ref = strokeshortcomb;
},
{
pos = (-28,-140);
ref = strokeshortcomb;
}
);
width = 469;
}
);
metricLeft = "=O";
metricRight = "=O";
unicode = 8364;
},
{
glyphname = plus;
lastChange = "2025-04-18 19:54:58 +0000";
layers = (
{
layerId = m01;
shapes = (
{
closed = 1;
nodes = (
(96,318,l),
(96,208,l),
(496,208,l),
(496,318,l)
);
},
{
closed = 1;
nodes = (
(351,463,l),
(241,463,l),
(241,63,l),
(351,63,l)
);
}
);
width = 600;
}
);
unicode = 43;
},
{
glyphname = minus;
lastChange = "2025-04-18 19:55:11 +0000";
layers = (
{
layerId = m01;
shapes = (
{
closed = 1;
nodes = (
(96,318,l),
(96,208,l),
(496,208,l),
(496,318,l)
);
}
);
width = 600;
}
);
unicode = 8722;
},
{
glyphname = multiply;
lastChange = "2025-04-18 19:55:43 +0000";
layers = (
{
layerId = m01;
shapes = (
{
closed = 1;
nodes = (
(206,443,l),
(129,366,l),
(411,83,l),
(489,160,l)
);
},
{
closed = 1;
nodes = (
(489,366,l),
(411,443,l),
(129,160,l),
(206,83,l)
);
}
);
width = 600;
}
);
unicode = 215;
},
{
glyphname = divide;
lastChange = "2025-04-18 19:57:34 +0000";
layers = (
{
layerId = m01;
shapes = (
{
closed = 1;
nodes = (
(81,317,l),
(81,207,l),
(481,207,l),
(481,317,l)
);
},
{
closed = 1;
nodes = (
(311,367,o),
(336,391,o),
(336,422,cs),
(336,452,o),
(311,477,o),
(281,477,cs),
(250,477,o),
(226,452,o),
(226,422,cs),
(226,391,o),
(250,367,o),
(281,367,cs)
);
},
{
closed = 1;
nodes = (
(311,49,o),
(336,73,o),
(336,104,cs),
(336,134,o),
(311,159,o),
(281,159,cs),
(250,159,o),
(226,134,o),
(226,104,cs),
(226,73,o),
(250,49,o),
(281,49,cs)
);
}
);
width = 600;
}
);
unicode = 247;
},
{
glyphname = equal;
lastChange = "2025-04-18 19:55:17 +0000";
layers = (
{
layerId = m01;
shapes = (
{
closed = 1;
nodes = (
(31,418,l),
(31,308,l),
(381,308,l),
(381,418,l)
);
},
{
closed = 1;
nodes = (
(31,218,l),
(31,108,l),
(381,108,l),
(381,218,l)
);
}
);
width = 412;
}
);
metricLeft = "=H*1.25";
metricRight = "=H*1.25";
unicode = 61;
},
{
glyphname = dieresiscomb;
kernLeft = dieresiscomb;
kernRight = dieresiscomb;
lastChange = "2025-04-17 20:04:21 +0000";
layers = (
{
anchors = (
{
name = _top;
pos = (215,525);
},
{
name = top;
pos = (215,675);
}
);
layerId = m01;
shapes = (
{
closed = 1;
nodes = (
(190,675,l),
(50,675,l),
(50,575,l),
(190,575,l)
);
},
{
closed = 1;
nodes = (
(380,675,l),
(240,675,l),
(240,575,l),
(380,575,l)
);
}
);
width = 430;
}
);
metricLeft = "=50";
metricRight = "=50";
unicode = 776;
},
{
glyphname = dotaccentcomb;
kernLeft = dotaccentcomb;
kernRight = dotaccentcomb;
lastChange = "2025-04-17 20:04:21 +0000";
layers = (
{
anchors = (
{
name = _top;
pos = (120,525);
},
{
name = top;
pos = (120,675);
}
);
layerId = m01;
shapes = (
{
closed = 1;
nodes = (
(190,675,l),
(50,675,l),
(50,575,l),
(190,575,l)
);
}
);
width = 240;
}
);
metricLeft = "=50";
metricRight = "=50";
unicode = 775;
},
{
glyphname = gravecomb;
kernLeft = gravecomb;
kernRight = gravecomb;
lastChange = "2025-04-17 20:04:21 +0000";
layers = (
{
anchors = (
{
name = _top;
pos = (225,525);
},
{
name = top;
pos = (165,700);
}
);
layerId = m01;
shapes = (
{
closed = 1;
nodes = (
(280,570,l),
(160,700,l),
(50,700,l),
(170,570,l)
);
}
);
width = 330;
}
);
metricLeft = "=50";
metricRight = "=50";
unicode = 768;
},
{
glyphname = acutecomb;
kernLeft = acutecomb;
kernRight = acutecomb;
lastChange = "2025-04-17 20:04:21 +0000";
layers = (
{
anchors = (
{
name = _top;
pos = (103,525);
},
{
name = top;
pos = (165,700);
}
);
layerId = m01;
shapes = (
{
closed = 1;
nodes = (
(280,700,l),
(170,700,l),
(50,570,l),
(160,570,l)
);
}
);
width = 330;
}
);
metricLeft = "=50";
metricRight = "=50";
unicode = 769;
},
{
glyphname = circumflexcomb;
kernLeft = circumflexcomb;
kernRight = circumflexcomb;
lastChange = "2025-04-17 20:04:21 +0000";
layers = (
{
anchors = (
{
name = _top;
pos = (225,525);
},
{
name = top;
pos = (225,700);
}
);
layerId = m01;
shapes = (
{
closed = 1;
nodes = (
(50,570,l),
(160,570,l),
(280,700,l),
(170,700,l)
);
},
{
closed = 1;
nodes = (
(170,700,l),
(290,570,l),
(400,570,l),
(280,700,l)
);
}
);
width = 450;
}
);
metricLeft = "=50";
metricRight = "=50";
unicode = 770;
},
{
glyphname = ringcomb;
kernLeft = ringcomb;
kernRight = ringcomb;
lastChange = "2025-04-17 20:04:21 +0000";
layers = (
{
anchors = (
{
name = _top;
pos = (105,525);
},
{
name = top;
pos = (105,680);
}
);
layerId = m01;
shapes = (
{
closed = 1;
nodes = (
(136,570,o),
(160,596,o),
(160,626,c),
(160,654,o),
(136,680,o),
(105,680,cs),
(74,680,o),
(50,654,o),
(50,626,c),
(50,596,o),
(74,570,o),
(105,570,cs)
);
},
{
closed = 1;
nodes = (
(91,600,o),
(80,612,o),
(80,626,cs),
(80,638,o),
(91,650,o),
(105,650,c),
(119,650,o),
(130,638,o),
(130,626,c),
(130,612,o),
(119,600,o),
(105,600,cs)
);
}
);
width = 210;
}
);
metricLeft = "=50";
metricRight = "=50";
unicode = 778;
},
{
glyphname = tildecomb;
kernLeft = tildecomb;
kernRight = tildecomb;
lastChange = "2025-04-17 20:04:21 +0000";
layers = (
{
anchors = (
{
name = _top;
pos = (182,525);
},
{
name = top;
pos = (182,724);
}
);
hints = (
{
name = _corner.ROUND;
origin = (0,1);
scale = (0.5,0.5);
type = Corner;
},
{
name = _corner.ROUND;
origin = (0,6);
scale = (0.25,0.25);
type = Corner;
},
{
name = _corner.ROUND;
origin = (0,5);
scale = (0.5,0.5);
type = Corner;
},
{
name = _corner.ROUND;
origin = (0,2);
scale = (0.25,0.25);
type = Corner;
}
);
layerId = m01;
shapes = (
{
closed = 1;
nodes = (
(50,602,l),
(110,706,l),
(245,628,l),
(271,672,l),
(314,647,l),
(253,542,l),
(118,620,l),
(93,577,l)
);
}
);
width = 364;
}
);
metricLeft = "=50";
metricRight = "=50";
unicode = 771;
},
{
glyphname = cedillacomb;
kernLeft = cedillacomb;
kernRight = cedillacomb;
lastChange = "2025-04-17 20:04:21 +0000";
layers = (
{
anchors = (
{
name = _bottom;
pos = (75,0);
},
{
name = bottom;
pos = (75,-202);
}
);
hints = (
{
name = _corner.ROUND;
origin = (0,1);
scale = (0.5,0.5);
type = Corner;
},
{
name = _corner.ROUND;
origin = (0,2);
scale = (0.25,0.25);
type = Corner;
},
{
name = _corner.ROUND;
origin = (0,5);
scale = (0.5,0.5);
type = Corner;
},
{
name = _corner.ROUND;
origin = (0,6);
scale = (0.125,0.125);
type = Corner;
},
{
name = _corner.ROUND;
options = 1;
origin = (0,5);
scale = (-0.5,0.5);
type = Corner;
},
{
name = _corner.ROUND;
origin = (0,7);
scale = (0.125,0.125);
type = Corner;
},
{
name = _corner.ROUND;
origin = (0,0);
scale = (0.5,0.5);
type = Corner;
}
);
layerId = m01;
shapes = (
{
closed = 1;
nodes = (
(206,-202,l),
(206,-52,l),
(100,-52,l),
(100,0,l),
(50,0,l),
(50,-102,l),
(156,-102,l),
(156,-152,l),
(50,-152,l),
(50,-202,l)
);
}
);
width = 256;
}
);
metricLeft = "=50";
metricRight = "=50";
unicode = 807;
},
{
glyphname = strokeshortcomb;
kernLeft = strokeshortcomb;
kernRight = strokeshortcomb;
lastChange = "2025-04-17 20:04:21 +0000";
layers = (
{
anchors = (
{
name = _center;
pos = (180,420);
}
);
layerId = m01;
shapes = (
{
closed = 1;
nodes = (
(50,475,l),
(50,365,l),
(310,365,l),
(310,475,l)
);
}
);
width = 360;
}
);
metricLeft = "=50";
metricRight = "=50";
unicode = 821;
},
{
glyphname = slashshortcomb;
kernLeft = slashshortcomb;
kernRight = slashshortcomb;
lastChange = "2025-04-17 20:04:21 +0000";
layers = (
{
anchors = (
{
name = _center;
pos = (190,478);
}
);
layerId = m01;
shapes = (
{
closed = 1;
nodes = (
(50,460,l),
(105,365,l),
(330,495,l),
(275,590,l)
);
}
);
width = 380;
}
);
metricLeft = "=50";
metricRight = "=50";
unicode = 823;
},
{
glyphname = slashlongcomb;
kernLeft = slash;
kernRight = slash;
lastChange = "2025-04-17 21:00:26 +0000";
layers = (
{
anchors = (
{
name = _center;
pos = (185,368);
}
);
layerId = m01;
shapes = (
{
closed = 1;
nodes = (
(120,0,l),
(320,747,l),
(250,747,l),
(50,0,l)
);
}
);
width = 370;
}
);
metricLeft = "=50";
metricRight = "=50";
unicode = 824;
},
{
export = 0;
glyphname = _corner.ROUND;
kernLeft = _corner.ROUND;
kernRight = _corner.ROUND;
lastChange = "2025-04-17 20:04:21 +0000";
layers = (
{
anchors = (
{
name = left;
pos = (30,140);
},
{
name = origin;
pos = (30,0);
}
);
annotations = (
{
pos = (186,16);
text = "off by 1 in a few spots (fixed)";
type = Text;
}
);
background = {
shapes = (
{
closed = 0;
nodes = (
(30,139,l),
(30,62,o),
(93,-1,o),
(170,-1,cs)
);
}
);
};
layerId = m01;
shapes = (
{
closed = 0;
nodes = (
(30,140,l),
(30,63,o),
(93,0,o),
(170,0,c)
);
}
);
width = 200;
}
);
},
{
export = 0;
glyphname = _segment.CUT;
kernLeft = _segment.CUT;
kernRight = _segment.CUT;
lastChange = "2025-04-17 20:04:21 +0000";
layers = (
{
anchors = (
{
name = end;
pos = (366,0);
},
{
name = start;
pos = (275,0);
}
);
annotations = (
{
pos = (290,15);
text = "23 x 24";
type = Text;
},
{
pos = (346,12);
text = "91 distance instead of 85";
type = Text;
width = 130;
},
{
pos = (265,73);
text = "marked for export ?";
type = Text;
}
);
background = {
shapes = (
{
closed = 0;
nodes = (
(275,0,l),
(275,40,l),
(298,16,o),
(334,0,o),
(366,0,c)
);
}
);
};
layerId = m01;
shapes = (
{
closed = 0;
nodes = (
(275,0,l),
(275,40,l),
(296,16,o),
(335,0,o),
(365,0,c)
);
}
);
width = 600;
}
);
},
